<svg width="27" height="24" viewBox="0 0 27 24" fill="none" xmlns="http://www.w3.org/2000/svg">
<path d="M2.01049 9.31312L1.00524 10.4669L0 9.31312L1.00524 8.15938L2.01049 9.31312ZM26.1818 22.3681C26.1818 22.8009 26.032 23.216 25.7654 23.522C25.4987 23.8281 25.1371 24 24.76 24C24.3829 24 24.0212 23.8281 23.7546 23.522C23.4879 23.216 23.3381 22.8009 23.3381 22.3681H26.1818ZM8.11446 18.6262L1.00524 10.4669L3.01573 8.15938L10.1249 16.3188L8.11446 18.6262ZM1.00524 8.15938L8.11446 0L10.1249 2.30747L3.01573 10.4669L1.00524 8.15938ZM2.01049 7.68124H16.2289V10.945H2.01049V7.68124ZM26.1818 19.1044V22.3681H23.3381V19.1044H26.1818ZM16.2289 7.68124C18.8686 7.68124 21.4001 8.88475 23.2667 11.027C25.1332 13.1693 26.1818 16.0748 26.1818 19.1044H23.3381C23.3381 16.9404 22.5891 14.865 21.2559 13.3348C19.9227 11.8046 18.1144 10.945 16.2289 10.945V7.68124Z" fill="black"/>
</svg>
