<svg width="126" height="92" viewBox="0 0 126 92" fill="none" xmlns="http://www.w3.org/2000/svg">
<path d="M29.7496 9.18252V0.456116H37.9576V23.9137H29.7496V15.0577H20.5048V9.18252H29.7496ZM8.02001 17.3473H25.1272V23.2657H0.0712092V1.27692H23.356V7.28172H8.02001V17.3473ZM29.4904 31.9921H1.66961V25.6849H37.7848V40.7617H29.4904V31.9921ZM80.0776 0.456116V7.75692H83.9656V14.8417H80.0776V22.6177H71.8696V0.456116H80.0776ZM51.22 15.2737H68.3272V21.5377H43.2712V1.49292H66.556V7.84332H51.22V15.2737ZM80.3368 40.7617H44.8264V24.1297H80.3368V40.7617ZM72.2584 29.6593H52.9048V35.1889H72.2584V29.6593ZM36.6616 66.5329H40.7656V73.6177H36.6616V91.7617H28.4536V51.4561H36.6616V66.5329ZM15.6232 59.7505H0.287209V52.7521H23.7016V63.0337C23.7016 79.4929 13.2904 89.3857 0.0712092 90.3793V82.8193C8.71121 81.4801 15.6232 74.8273 15.6232 63.3793V59.7505ZM81.1576 91.7617H72.9496V51.4561H81.1576V91.7617ZM43.0552 79.4065V63.4225C43.0552 55.9921 48.2392 51.8881 55.324 51.8881C62.452 51.8881 67.636 55.9489 67.636 63.4225V79.4065C67.636 86.8801 62.452 90.9409 55.3672 90.9409C48.2824 90.9409 43.0552 86.8801 43.0552 79.4065ZM51.0472 62.7313V80.0977C51.0472 82.9057 52.948 84.2881 55.324 84.2881C57.7 84.2881 59.644 82.9057 59.644 80.0977V62.7313C59.644 59.9665 57.7 58.4977 55.324 58.5409C52.948 58.5841 51.0472 60.0097 51.0472 62.7313ZM87.4216 52.5793H122.284V59.3617H95.8024V69.2545H123.018V76.0369H87.4216V52.5793ZM85.4776 83.8129H125.222V90.6817H85.4776V83.8129Z" fill="#37392E"/>
</svg>
