<svg width="235" height="63" viewBox="0 0 235 63" fill="none" xmlns="http://www.w3.org/2000/svg">
<g filter="url(#filter0_d_141_859)">
<path d="M13.2211 0.0662978V6.83598H11.5947V3.49517H8.95833V2.18992H11.5947V0.0662978H13.2211ZM2.05915 5.61878C4.18795 4.97134 5.2912 3.33978 5.30156 1.55283V0.496201H6.9383V1.55283C6.92794 3.18439 8.00011 4.73308 10.0512 5.35981L9.18623 6.62362C7.75149 6.1471 6.71558 5.2096 6.13547 4.00794C5.55536 5.35463 4.47283 6.4009 2.91378 6.91367L2.05915 5.61878ZM4.49873 8.69026V7.42127H13.2211V10.8346H6.11993V11.8498H13.6355V13.1395H4.51944V9.63294H11.6051V8.69026H4.49873ZM25.5427 0.0662978V2.63536H27.3918V3.98722H25.5427V6.6547H23.906V0.0662978H25.5427ZM15.6653 6.19372V0.646409H17.302V4.83667C18.9802 4.81595 20.7775 4.67093 22.7043 4.298L22.896 5.62914C20.6998 6.07459 18.6798 6.19372 16.7685 6.19372H15.6653ZM16.8773 8.50898V7.22963H25.5427V10.731H18.5244V11.8239H25.9571V13.1395H16.898V9.49827H23.9008V8.50898H16.8773ZM30.644 10.9434L29.4216 15.0508H28.0283L28.7794 10.9434H30.644ZM46.826 0.0662978V13.2949H45.2566V6.6029H43.7908V12.6371H42.2628V0.314917H43.7908V5.27175H45.2566V0.0662978H46.826ZM36.0318 10.0007V1.57873H37.6634V8.57113C38.8029 8.55041 40.0511 8.452 41.4444 8.18267L41.6154 9.59669C39.8232 9.91264 38.3056 10.0059 36.9123 10.0007H36.0318ZM56.7092 3.24655C56.6989 5.60325 57.885 7.9962 59.9309 8.9855L58.9416 10.2907C57.5017 9.56561 56.4762 8.16713 55.9116 6.48377C55.3263 8.28108 54.2438 9.77797 52.7313 10.5394L51.7265 9.22376C53.8605 8.21892 55.0725 5.68612 55.0829 3.24655V1.12811H56.7092V3.24655ZM60.7182 13.2949V0.0662978H62.3498V5.25622H64.3905V6.63916H62.3498V13.2949H60.7182ZM75.3913 0.0766574V3.29316H77.2508V4.65539H75.3913V7.94441H73.7546V0.0766574H75.3913ZM65.4362 2.06043V0.75H71.4963V4.63467H67.0833V6.04869C69.3261 6.04351 70.8748 5.97099 72.6824 5.67058L72.8482 6.95511C70.8799 7.32286 69.1551 7.39019 66.5447 7.39019H65.4621V3.40193H69.901V2.06043H65.4362ZM66.8192 13.1395V8.52452H75.3913V13.1395H66.8192ZM68.4145 11.8239H73.796V9.79869H68.4145V11.8239ZM89.9919 5.35981V6.64952H77.908V5.35981H89.9919ZM79.3272 8.79903V7.55594H88.4692V10.8916H80.9381V11.8912H88.8317V13.1706H79.3428V9.71064H86.8635V8.79903H79.3272ZM79.4464 4.51554V0.397789H88.4381V1.69786H81.0727V3.22065H88.552V4.51554H79.4464ZM96.8957 0.2683C99.9102 0.2683 101.661 1.07113 101.661 2.53177C101.661 4.01312 99.9102 4.81595 96.8957 4.82113C93.8812 4.81595 92.1202 4.01312 92.1254 2.53177C92.1202 1.07113 93.8812 0.2683 96.8957 0.2683ZM90.8719 6.8308V5.53073H102.935V6.8308H90.8719ZM92.2911 8.92852V7.71651H101.433V10.9589H93.9019V11.943H101.796V13.1861H92.3066V9.80387H99.8274V8.92852H92.2911ZM93.8294 2.53177C93.8191 3.26726 94.8757 3.60394 96.8957 3.60912C98.9365 3.60394 99.9879 3.26726 99.9879 2.53177C99.9879 1.85325 98.9365 1.46996 96.8957 1.46996C94.8757 1.46996 93.8191 1.85325 93.8294 2.53177ZM111.72 0.646409C113.73 0.641229 115.185 1.77037 115.185 3.42265C115.185 5.05939 113.73 6.20925 111.72 6.19889C109.721 6.20925 108.271 5.05939 108.276 3.42265C108.271 1.77037 109.721 0.641229 111.72 0.646409ZM107.406 7.1105C109.793 7.1105 113.139 7.0587 115.999 6.63398L116.113 7.83564C114.968 8.05836 113.782 8.1982 112.622 8.28626V12.8961H110.99V8.38467C109.768 8.43646 108.613 8.44164 107.608 8.452L107.406 7.1105ZM109.85 3.42265C109.845 4.31871 110.627 4.87293 111.72 4.86257C112.849 4.87293 113.637 4.31871 113.637 3.42265C113.637 2.51623 112.849 1.95166 111.72 1.96202C110.627 1.95166 109.845 2.51623 109.85 3.42265ZM116.853 13.2949V0.0766574H118.469V13.2949H116.853ZM130.806 0.0766574V4.23584H132.655V5.57735H130.806V9.96961H129.17V0.0766574H130.806ZM120.37 2.83736V1.54247H123.493V0.0662978H125.114V1.54247H128.227V2.83736H120.37ZM121.053 5.92438C121.048 4.40159 122.374 3.39157 124.306 3.39157C126.207 3.39157 127.528 4.40159 127.533 5.92438C127.528 7.43163 126.207 8.4261 124.306 8.42093C122.374 8.4261 121.048 7.43163 121.053 5.92438ZM122.322 13.0463V9.19268H123.943V11.7255H131.324V13.0463H122.322ZM122.633 5.92438C122.623 6.71685 123.296 7.17783 124.306 7.17265C125.306 7.17783 125.979 6.71685 125.989 5.92438C125.979 5.11637 125.306 4.64503 124.306 4.64503C123.296 4.64503 122.623 5.11637 122.633 5.92438ZM143.637 0.957182V2.28315H139.219V6.21443C141.477 6.20407 142.798 6.1212 144.264 5.81561L144.419 7.12086C142.777 7.4886 141.337 7.53522 138.623 7.53004H137.597V0.957182H143.637ZM138.944 9.92818V8.63329H147.972V13.2949H146.346V9.92818H138.944ZM142.953 4.7279V3.41229H146.346V0.0662978H147.972V8.0221H146.346V4.7279H142.953ZM160.294 0.0662978V3.1326H162.143V4.47928H160.294V7.5145H158.657V0.0662978H160.294ZM150.401 6.92921V0.915745H156.285V2.22617H152.022V5.61878C154.508 5.6136 155.886 5.51519 157.455 5.20442L157.637 6.49413C155.907 6.87224 154.363 6.93439 151.478 6.92921H150.401ZM151.742 13.124V8.12051H160.294V13.124H151.742ZM153.348 11.8394H158.683V9.42058H153.348V11.8394ZM177.692 0.0662978V9.94372H176.144V0.0662978H177.692ZM166.883 7.5145V1.33529H172.104V3.67127H173.513V0.294199H175.051V9.53971H173.513V4.99724H172.104V7.5145H166.883ZM168.416 6.26105H170.581V2.60946H168.416V6.26105ZM168.825 13.0463V8.74206H170.451V11.7255H178.05V13.0463H168.825ZM190.097 7.00691V8.29662H180.81V1.10221H189.978V2.423H182.462V4.00794H189.677V5.29765H182.462V7.00691H190.097ZM179.334 11.6944V10.3633H191.438V11.6944H179.334ZM207.247 0.0662978V13.2949H205.704V0.0662978H207.247ZM195.624 9.54489C197.535 8.37431 198.375 5.98653 198.375 3.68163V2.8011H196.075V1.4855H202.083V2.8011H199.944V3.68163C199.939 5.91402 200.742 8.15677 202.637 9.24448L201.679 10.441C200.452 9.71581 199.633 8.45718 199.177 6.94993C198.711 8.58149 197.867 9.97479 196.619 10.7465L195.624 9.54489ZM201.12 5.99689V4.68128H203.026V0.314917H204.554V12.6578H203.026V5.99689H201.12ZM220.926 10.3684V11.7048H208.821V10.3684H214.047V7.33322H215.684V10.3684H220.926ZM209.349 6.58736C211.981 6.15228 213.933 4.37569 213.996 2.46961H209.826V1.13329H219.874V2.46961H215.705C215.762 4.37051 217.72 6.11084 220.439 6.52003L219.786 7.80974C217.554 7.40573 215.72 6.21961 214.86 4.56215C214.011 6.24033 212.198 7.46271 209.997 7.87707L209.349 6.58736ZM232.838 0.0662978V13.2949H231.196V0.0662978H232.838ZM221.873 9.65366C225.338 8.00656 226.944 5.77417 227.234 2.75967H222.546V1.46996H228.891C228.886 5.4116 227.358 8.7576 222.728 10.9589L221.873 9.65366Z" fill="#7D776F"/>
<path d="M57.5156 35.04V28.576H63.5956V45.952H57.5156V39.392H50.6676V35.04H57.5156ZM41.4196 41.088H54.0916V45.472H35.5316V29.184H52.7796V33.632H41.4196V41.088ZM57.3236 51.936H36.7156V47.264H63.4676V58.432H57.3236V51.936ZM94.7956 28.576V33.984H97.6756V39.232H94.7956V44.992H88.7156V28.576H94.7956ZM73.4196 39.552H86.0916V44.192H67.5316V29.344H84.7796V34.048H73.4196V39.552ZM94.9876 58.432H68.6836V46.112H94.9876V58.432ZM89.0036 50.208H74.6676V54.304H89.0036V50.208ZM135.604 39.744H138.644V44.992H135.604V58.432H129.524V28.576H135.604V39.744ZM120.02 34.72H108.66V29.536H126.004V37.152C126.004 49.344 118.292 56.672 108.5 57.408V51.808C114.9 50.816 120.02 45.888 120.02 37.408V34.72ZM168.564 58.432H162.484V28.576H168.564V58.432ZM140.34 49.28V37.44C140.34 31.936 144.18 28.896 149.428 28.896C154.708 28.896 158.548 31.904 158.548 37.44V49.28C158.548 54.816 154.708 57.824 149.46 57.824C144.212 57.824 140.34 54.816 140.34 49.28ZM146.26 36.928V49.792C146.26 51.872 147.668 52.896 149.428 52.896C151.188 52.896 152.628 51.872 152.628 49.792V36.928C152.628 34.88 151.188 33.792 149.428 33.824C147.668 33.856 146.26 34.912 146.26 36.928ZM173.204 29.408H199.028V34.432H179.412V41.76H199.572V46.784H173.204V29.408ZM171.764 52.544H201.204V57.632H171.764V52.544Z" fill="#FC6736"/>
</g>
<defs>
<filter id="filter0_d_141_859" x="0.0595703" y="0.0664062" width="234.778" height="62.3652" filterUnits="userSpaceOnUse" color-interpolation-filters="sRGB">
<feFlood flood-opacity="0" result="BackgroundImageFix"/>
<feColorMatrix in="SourceAlpha" type="matrix" values="0 0 0 0 0 0 0 0 0 0 0 0 0 0 0 0 0 0 127 0" result="hardAlpha"/>
<feOffset dy="2"/>
<feGaussianBlur stdDeviation="1"/>
<feComposite in2="hardAlpha" operator="out"/>
<feColorMatrix type="matrix" values="0 0 0 0 0 0 0 0 0 0 0 0 0 0 0 0 0 0 0.25 0"/>
<feBlend mode="normal" in2="BackgroundImageFix" result="effect1_dropShadow_141_859"/>
<feBlend mode="normal" in="SourceGraphic" in2="effect1_dropShadow_141_859" result="shape"/>
</filter>
</defs>
</svg>
