<svg width="219" height="21" viewBox="0 0 219 21" fill="none" xmlns="http://www.w3.org/2000/svg">
<path d="M16.2773 9.96484V11.9961H9.32422V17.8164H6.86328V11.9961H0.0078125V9.96484H16.2773ZM8.09375 0.609375C11.9023 0.609375 14.5781 2.19141 14.5781 4.65234C14.5781 7.07422 11.9023 8.61719 8.09375 8.61719C4.28516 8.61719 1.62891 7.07422 1.64844 4.65234C1.62891 2.19141 4.28516 0.609375 8.09375 0.609375ZM8.09375 2.60156C5.71094 2.60156 4.1875 3.34375 4.20703 4.65234C4.1875 5.92188 5.71094 6.64453 8.09375 6.64453C10.4961 6.64453 12 5.92188 12 4.65234C12 3.34375 10.4961 2.60156 8.09375 2.60156ZM32.2148 0.0234375V17.8359H29.7344V0.0234375H32.2148ZM26.707 1.50781V8.36328H20.8477V11.625C23.5527 11.6152 25.8574 11.459 28.4648 11.0391L28.6797 13.0508C25.75 13.5586 23.1133 13.6758 19.8711 13.6758H18.2695V6.39062H24.168V3.51953H18.25V1.50781H26.707ZM45.1055 1V2.99219H41.5508C41.668 4.86719 43.0059 6.74219 45.7891 7.50391L44.5391 9.4375C42.5078 8.86133 41.082 7.64062 40.2812 6.07812C39.4707 7.76758 38.0156 9.10547 35.9062 9.75L34.6562 7.79688C37.4883 6.97656 38.8652 5.00391 38.9922 2.99219H35.3398V1H45.1055ZM49.4805 0.0234375V9.67188H46.9805V0.0234375H49.4805ZM40.0469 10.4141V12.0742H47V10.4141H49.4805V17.6016H37.5859V10.4141H40.0469ZM40.0469 15.6094H47V14.0078H40.0469V15.6094ZM62.918 5.58984C62.918 8.10938 64.2266 10.9805 67.0586 12.3086L65.6719 14.1836C63.7773 13.334 62.459 11.6543 61.707 9.67188C60.9453 11.8105 59.5391 13.6172 57.5273 14.4961L56.1602 12.5625C59.0508 11.293 60.4375 8.26562 60.457 5.58984V4.90625H56.7852V2.91406H60.4375V0.414062H62.9375V2.91406H66.5508V4.90625H62.918V5.58984ZM70.5156 0.0234375V6.91797H73.1328V9.00781H70.5156V17.7969H68.0156V0.0234375H70.5156ZM80.3398 1.76172V8.55859H76.668V11.7031C78.1035 11.6738 79.5098 11.5762 81.1406 11.3125L81.3359 13.3242C79.207 13.6953 77.4688 13.7734 75.4375 13.7734H74.2852V6.60547H77.918V3.73438H74.2656V1.76172H80.3398ZM89.1484 0.0234375V17.7969H86.7852V0.0234375H89.1484ZM85.457 0.316406V16.9375H83.1133V10.8047H81.1602V8.8125H83.1133V6.39062H81.1602V4.39844H83.1133V0.316406H85.457ZM94.8125 14.5547L93.1328 20.1211H91.0625L92.0391 14.5547H94.8125ZM105.672 1.27344C108.074 1.27344 109.861 3.25586 110.223 6.44922H113.309V0.0234375H115.77V17.8359H113.309V8.44141H110.242C109.979 11.8594 108.152 13.9492 105.672 13.9492C102.977 13.9492 101.043 11.5078 101.062 7.60156C101.043 3.73438 102.977 1.27344 105.672 1.27344ZM105.672 3.51953C104.344 3.51953 103.426 4.96484 103.445 7.60156C103.426 10.2578 104.344 11.6836 105.672 11.6836C107.02 11.6836 107.898 10.2578 107.898 7.60156C107.898 4.96484 107.02 3.51953 105.672 3.51953ZM133.465 10.375V12.2695H120.32V10.375H125.652V8.98828H128.152V10.375H133.465ZM126.863 12.7969C130.125 12.7969 132.098 13.7148 132.098 15.2969C132.098 16.9375 130.125 17.8164 126.863 17.8164C123.582 17.8164 121.609 16.9375 121.629 15.2969C121.609 13.7148 123.582 12.7969 126.863 12.7969ZM126.863 14.5156C125.184 14.5352 124.285 14.75 124.285 15.2969C124.285 15.8828 125.184 16.1172 126.863 16.1172C128.504 16.1172 129.402 15.8828 129.402 15.2969C129.402 14.75 128.504 14.5352 126.863 14.5156ZM123.016 0.746094V2.67969H120.77V6.41016C121.561 6.38086 122.322 6.29297 123.191 6.11719L123.348 8.07031C121.844 8.36328 120.73 8.38281 119.207 8.38281H118.348V0.746094H123.016ZM128.816 0.746094V2.67969H126.297V6.42969C127.557 6.40039 128.348 6.32227 129.266 6.11719L129.441 8.07031C128.211 8.36328 127.137 8.38281 124.793 8.38281H123.836V0.746094H128.816ZM133.191 0.0234375V9.49609H130.75V5.35547H128.328V3.46094H130.75V0.0234375H133.191ZM150.75 0.0234375V17.7969H148.406V0.0234375H150.75ZM146.961 0.414062V17.0156H144.637V8.85156H141.727C140.711 10.8828 139.061 12.6406 136.531 14.1055L135.125 12.3477C138.709 10.2188 140.291 7.63086 140.633 4.14453H136.102V2.13281H143.113C143.104 3.82227 142.928 5.41406 142.508 6.87891H144.637V0.414062H146.961ZM164.129 4.86719C164.129 7.73828 165.594 10.8047 168.582 12.0547L167.234 14.0078C165.135 13.1191 163.689 11.3516 162.898 9.18359C162.088 11.5371 160.613 13.4902 158.523 14.457L157.098 12.4844C160.047 11.1758 161.57 7.875 161.57 4.86719V3.77344H157.801V1.74219H167.84V3.77344H164.129V4.86719ZM172.117 0.0234375V17.7969H169.598V0.0234375H172.117ZM189.793 0.0429688V9.04688H187.43V5.53125H185.809V9.00781H183.504V0.355469H185.809V3.55859H187.43V0.0429688H189.793ZM177.723 0.980469V6.41016C179.295 6.39062 180.76 6.2832 182.41 5.94141L182.645 7.93359C180.477 8.36328 178.602 8.42188 176.434 8.42188H175.223V0.980469H177.723ZM189.793 9.67188V14.5156H180.164V15.6484H190.398V17.6016H177.645V12.6797H187.293V11.625H177.625V9.67188H189.793ZM206.043 0.0234375V6.99609H208.406V9.04688H206.043V17.7969H203.543V0.0234375H206.043ZM197.117 1.83984C197.098 6.72266 196.59 10.5312 193.406 14.0273L191.453 12.6406C193.875 10.0234 194.578 7.41602 194.734 3.87109H192.234V1.83984H197.117ZM202.039 1.83984C202.039 6.91797 201.59 11.3125 198.445 15.1797L196.473 13.793C198.885 10.8242 199.539 7.77734 199.695 3.87109H197.703V1.83984H202.039ZM212.195 11.5469C212.215 9.125 212.859 8.36328 214.031 7.64062C214.871 7.09375 215.516 6.48828 215.516 5.58984C215.516 4.61328 214.754 3.96875 213.816 3.96875C212.898 3.96875 212.059 4.57422 212.02 5.72656H209.246C209.305 2.97266 211.336 1.66406 213.836 1.66406C216.551 1.66406 218.484 3.08984 218.484 5.49219C218.484 7.09375 217.664 8.12891 216.375 8.89062C215.281 9.55469 214.793 10.1797 214.773 11.5469V11.7617H212.195V11.5469ZM213.543 16.1758C212.625 16.1758 211.883 15.4336 211.902 14.5352C211.883 13.6367 212.625 12.9141 213.543 12.9141C214.402 12.9141 215.164 13.6367 215.164 14.5352C215.164 15.4336 214.402 16.1758 213.543 16.1758Z" fill="#37392E"/>
</svg>
