<svg width="93" height="43" viewBox="0 0 93 43" fill="none" xmlns="http://www.w3.org/2000/svg">
<path d="M12.4509 10.7611V12.3128H0.370801V10.7611H5.44648V8.38281H1.37144V6.93262H3.14067V3.16211H1.31343V1.68291H11.4358V3.16211H9.57954V6.93262H11.3778V8.38281H7.28823V10.7611H12.4509ZM4.99692 6.93262H7.7523V3.16211H4.99692V6.93262ZM24.5456 0.595263V10.4421H22.7908V0.595263H24.5456ZM21.9207 0.827295V10.1375H20.166V5.64194H18.8318V4.17725H20.166V0.827295H21.9207ZM24.8791 12.0663V13.5455H15.6994V9.38345H17.5556V12.0663H24.8791ZM18.7593 1.5959V3.0606H15.4963V4.36577H18.2662V5.77246H15.4963V7.10664C16.9393 7.09214 17.9907 7.04863 19.2088 6.8311L19.3974 8.2813C17.8747 8.54233 16.613 8.58584 14.6262 8.58584H13.7271V1.5959H18.7593ZM37.4813 0.580761V13.7775H35.6976V0.580761H37.4813ZM34.6824 0.812793V13.183H32.9567V6.90361H30.5929V5.39541H32.9567V0.812793H34.6824ZM31.492 2.07446V3.55366H28.2581V9.29644C29.672 9.28918 30.7379 9.21667 31.9706 8.96289L32.1156 10.4711C30.6219 10.7756 29.2877 10.8336 27.3589 10.8336H26.4453V2.07446H31.492ZM49.924 0.580761V13.8065H48.0532V0.580761H49.924ZM42.76 1.50889C44.7468 1.50889 46.226 3.33613 46.226 6.20752C46.226 9.10791 44.7468 10.9207 42.76 10.9207C40.7297 10.9207 39.2505 9.10791 39.265 6.20752C39.2505 3.33613 40.7297 1.50889 42.76 1.50889ZM42.76 3.17661C41.7304 3.17661 41.0488 4.24976 41.0488 6.20752C41.0488 8.17979 41.7304 9.23843 42.76 9.23843C43.7606 9.23843 44.4422 8.17979 44.4422 6.20752C44.4422 4.24976 43.7606 3.17661 42.76 3.17661ZM51.9688 10.5871V8.86138L56.4063 1.94395H59.1472V8.83237H60.4814V10.5871H59.1472V12.4434H57.0734V10.5871H51.9688ZM54.173 8.83237H57.1024V4.33677H57.0009L54.173 8.74536V8.83237ZM65.9776 12.5884C63.3528 12.5884 61.7576 10.6306 61.7576 7.19365C61.7576 3.75669 63.3528 1.79893 65.9776 1.79893C68.6025 1.79893 70.1977 3.77119 70.1977 7.19365C70.1977 10.6451 68.6025 12.5884 65.9776 12.5884ZM65.9776 10.7901C67.1958 10.7901 67.9789 9.61548 67.9644 7.19365C67.9644 4.80083 67.1958 3.58267 65.9776 3.58267C64.7595 3.58267 63.9909 4.80083 63.9909 7.19365C63.9764 9.61548 64.7595 10.7901 65.9776 10.7901ZM76.2305 1.94395V12.4434H74.0407V4.01772H73.9827L71.5754 5.52593V3.59717L74.1712 1.94395H76.2305ZM88.7747 1.33486V2.81406H84.2356V3.8437H88.3832V5.26489H84.2356V6.35254C86.5559 6.34529 88.0279 6.30903 89.7028 6.0335L89.8914 7.46919C88.0061 7.78823 86.3384 7.81724 83.5105 7.81724H82.3793V1.33486H88.7747ZM92.7047 0.595263V8.42632H90.8485V0.595263H92.7047ZM92.7047 8.96289V13.6325H83.8585V8.96289H92.7047ZM85.6858 10.3986V12.1533H90.892V10.3986H85.6858Z" fill="black"/>
<path d="M22.3136 31.4383H17.7992V26.1636H14.259V22.5758H17.7992V20.081H22.3136V31.4383ZM8.53285 27.6367C7.03597 29.7514 4.54117 31.2007 1.42861 31.6046V27.8506C4.11349 27.019 5.61037 25.0944 5.68165 21.863L5.70541 20.2711H10.101V22.4808C10.101 23.1223 10.0297 23.7638 9.91093 24.3816C13.166 24.7855 15.3995 27.3041 15.3757 31.1057H11.0514C11.0276 29.49 10.0772 27.9931 8.53285 27.6367ZM7.17853 38.3762V39.5167H22.67V42.2491H2.52157V35.9527H17.823V34.836H2.52157V32.1511H22.2899V38.3762H7.17853ZM25.5688 20.7226H45.6697V24.4054H25.5688V20.7226ZM42.4621 30.084H45.9548V33.5767H25.2836V30.084H28.7764V25.4983H33.3858V30.084H37.8527V25.4983H42.4621V30.084ZM37.924 34.4321V37.9961H46.5488V41.6551H24.6896V37.9961H33.3145V34.4321H37.924ZM49.3288 20.6513H69.0971V24.0965H53.9144V25.9973H68.9545V29.3237H53.9144V31.2245H69.4772V34.6459H49.3288V20.6513ZM48.4496 37.8773H70.3088V41.6551H48.4496V37.8773Z" fill="#FC6736"/>
</svg>
