<svg width="172" height="92" viewBox="0 0 172 92" fill="none" xmlns="http://www.w3.org/2000/svg">
<path d="M75.7541 20.7717H67.5461V11.1813H61.1093V4.65813H67.5461V0.122132H75.7541V20.7717ZM50.6981 13.8597C47.9765 17.7045 43.4405 20.3397 37.7813 21.0741V14.2485C42.6629 12.7365 45.3845 9.23733 45.5141 3.36213L45.5573 0.467732H53.5493V4.48533C53.5493 5.65173 53.4197 6.81813 53.2037 7.94133C59.1221 8.67573 63.1829 13.2549 63.1397 20.1669H55.2773C55.2341 17.2293 53.5061 14.5077 50.6981 13.8597ZM48.2357 33.3861V35.4597H76.4021V40.4277H39.7685V28.9797H67.5893V26.9493H39.7685V22.0677H75.7109V33.3861H48.2357ZM117.874 0.122132V6.99093H121.762V14.0757H117.874V20.5557H109.666V0.122132H117.874ZM89.1461 13.4709H106.34V19.6917H81.1109V0.640533H89.1461V13.4709ZM118.047 33.3429H91.4357V35.4165H118.738V40.4277H82.9685V28.8501H109.925V26.7765H82.9685V21.8517H118.047V33.3429ZM37.528 51.1221V58.4229H41.416V65.5077H37.528V73.2837H29.32V51.1221H37.528ZM13.8976 65.6373C11.1328 69.8709 6.46723 72.8085 0.59203 73.6293V66.6741C5.60323 65.0325 8.41123 61.2309 8.49763 54.7941V51.6837H16.6192V56.1333C16.6192 57.2997 16.5328 58.4661 16.3168 59.5893C22.3648 60.4101 26.512 65.2053 26.4256 72.7221H18.4768C18.52 69.4821 16.7488 66.4581 13.8976 65.6373ZM11.392 74.6229H28.8448C34.9792 74.6229 38.2192 78.0789 38.2192 83.0901C38.2192 88.0581 34.9792 91.5573 28.8448 91.5573H11.392C5.17123 91.5573 2.01763 87.9717 2.01763 83.0901C2.01763 78.1653 5.17123 74.6229 11.392 74.6229ZM13.2496 85.7685H26.9872C28.888 85.7685 29.8816 84.7317 29.8816 83.0901C29.8816 81.4053 28.888 80.3685 26.9872 80.3685H13.2496C11.3488 80.3685 10.3552 81.4053 10.3552 83.0901C10.3552 84.7317 11.3488 85.7685 13.2496 85.7685ZM73.6 74.1477V51.1221H81.808V74.1477H73.6ZM57.3568 65.7237C54.592 70.1301 49.84 73.2405 43.7488 74.1045V67.0629C48.8464 65.3781 51.784 61.4469 51.8272 54.7941L51.8704 51.6837H59.992V56.2629C59.992 57.3861 59.9056 58.5093 59.6896 59.5893C65.8672 60.3669 70.1008 65.2917 70.0576 73.1541H62.0656C62.1088 69.7845 60.2512 66.5877 57.3568 65.7237ZM73.3408 82.3125H45.52V75.9189H81.6352V91.4277H73.3408V82.3125ZM118.744 60.0645V51.1221H125.656V74.7957H118.744V66.3717H116.152V74.7957H109.24V51.1221H116.152V60.0645H118.744ZM99.52 51.9861H106.475V74.0181H86.6032V51.9861H93.6448V56.6949H99.52V51.9861ZM93.6448 62.3973V68.0133H99.52V62.3973H93.6448ZM116.973 82.8309H88.504V76.5669H125.267V91.4277H116.973V82.8309ZM166.912 66.1989H171.016V73.2837H166.912V91.4277H158.704V51.1221H166.912V66.1989ZM147.472 62.5269V59.1573H130.149V52.2021H155.291V62.1381C155.291 68.5317 154.773 73.3701 153.563 78.5541H145.744C147.04 72.1605 147.472 67.8405 147.472 62.5269ZM142.374 66.4149V83.1333H147.688C151.965 83.1333 154.298 82.9605 156.587 82.6149V89.2677C154.298 89.6133 151.965 89.7861 147.688 89.7861H129.328V83.1333H134.858V66.4149H142.374Z" fill="#37392E"/>
</svg>
