<svg width="175" height="27" viewBox="0 0 175 27" fill="none" xmlns="http://www.w3.org/2000/svg">
<path d="M24.82 14.0276H19.5V7.81165H15.328V3.58365H19.5V0.643647H24.82V14.0276ZM8.58 9.54765C6.816 12.0396 3.876 13.7476 0.208 14.2236V9.79965C3.372 8.81965 5.136 6.55165 5.22 2.74365L5.248 0.867647H10.428V3.47165C10.428 4.22765 10.344 4.98365 10.204 5.71165C14.04 6.18765 16.672 9.15565 16.644 13.6356H11.548C11.52 11.7316 10.4 9.96765 8.58 9.54765ZM6.984 22.2036V23.5476H25.24V26.7676H1.496V19.3476H19.528V18.0316H1.496V14.8676H24.792V22.2036H6.984ZM52.12 0.643647V5.09565H54.64V9.68765H52.12V13.8876H46.8V0.643647H52.12ZM33.5 9.29565H44.644V13.3276H28.292V0.979648H33.5V9.29565ZM52.232 22.1756H34.984V23.5196H52.68V26.7676H29.496V19.2636H46.968V17.9196H29.496V14.7276H52.232V22.1756ZM87.9677 0.643647V5.37565H90.4877V9.96765H87.9677V15.0076H82.6477V0.643647H87.9677ZM72.6517 10.0516C70.8597 12.7956 67.8357 14.6996 64.0277 15.2316V10.7236C67.2757 9.65965 69.0957 7.19565 69.1517 3.02365V1.00765H74.4157V3.89165C74.4157 4.64765 74.3597 5.40365 74.2197 6.13165C78.1397 6.66365 80.8277 9.77165 80.7717 14.6436H75.6197C75.6477 12.5436 74.4997 10.5836 72.6517 10.0516ZM71.0277 15.8756H82.3397C86.3157 15.8756 88.4157 18.1156 88.4157 21.3636C88.4157 24.5836 86.3157 26.8516 82.3397 26.8516H71.0277C66.9957 26.8516 64.9517 24.5276 64.9517 21.3636C64.9517 18.1716 66.9957 15.8756 71.0277 15.8756ZM72.2317 23.0996H81.1357C82.3677 23.0996 83.0117 22.4276 83.0117 21.3636C83.0117 20.2716 82.3677 19.5996 81.1357 19.5996H72.2317C70.9997 19.5996 70.3557 20.2716 70.3557 21.3636C70.3557 22.4276 70.9997 23.0996 72.2317 23.0996ZM111.348 15.5676V0.643647H116.668V15.5676H111.348ZM100.82 10.1076C99.0277 12.9636 95.9477 14.9796 91.9997 15.5396V10.9756C95.3037 9.88365 97.2077 7.33565 97.2357 3.02365L97.2637 1.00765H102.528V3.97565C102.528 4.70365 102.472 5.43165 102.332 6.13165C106.336 6.63565 109.08 9.82765 109.052 14.9236H103.872C103.9 12.7396 102.696 10.6676 100.82 10.1076ZM111.18 20.8596H93.1477V16.7156H116.556V26.7676H111.18V20.8596ZM140.608 6.43965V0.643647H145.088V15.9876H140.608V10.5276H138.928V15.9876H134.448V0.643647H138.928V6.43965H140.608ZM128.148 1.20365H132.656V15.4836H119.776V1.20365H124.34V4.25565H128.148V1.20365ZM124.34 7.95165V11.5916H128.148V7.95165H124.34ZM139.46 21.1956H121.008V17.1356H144.836V26.7676H139.46V21.1956ZM171.828 10.4156H174.488V15.0076H171.828V26.7676H166.508V0.643647H171.828V10.4156ZM159.228 8.03565V5.85165H148V1.34365H164.296V7.78365C164.296 11.9276 163.96 15.0636 163.176 18.4236H158.108C158.948 14.2796 159.228 11.4796 159.228 8.03565ZM155.924 10.5556V21.3916H159.368C162.14 21.3916 163.652 21.2796 165.136 21.0556V25.3676C163.652 25.5916 162.14 25.7036 159.368 25.7036H147.468V21.3916H151.052V10.5556H155.924Z" fill="#37392E"/>
</svg>
