<svg width="263" height="89" viewBox="0 0 263 89" fill="none" xmlns="http://www.w3.org/2000/svg">
<path d="M61.5956 15.8505H55.5156V8.74652H50.7476V3.91451H55.5156V0.554514H61.5956V15.8505ZM43.0356 10.7305C41.0196 13.5785 37.6596 15.5305 33.4676 16.0745V11.0185C37.0836 9.89852 39.0996 7.30651 39.1956 2.95451L39.2276 0.810514H45.1476V3.78651C45.1476 4.65051 45.0516 5.51451 44.8916 6.34651C49.2756 6.89051 52.2836 10.2825 52.2516 15.4025H46.4276C46.3956 13.2265 45.1156 11.2105 43.0356 10.7305ZM41.2116 25.1945V26.7305H62.0756V30.4105H34.9396V21.9305H55.5476V20.4265H34.9396V16.8105H61.5636V25.1945H41.2116ZM92.7956 0.554514V5.64252H95.6756V10.8905H92.7956V15.6905H86.7156V0.554514H92.7956ZM71.5156 10.4425H84.2516V15.0505H65.5636V0.938515H71.5156V10.4425ZM92.9236 25.1625H73.2116V26.6985H93.4356V30.4105H66.9396V21.8345H86.9076V20.2985H66.9396V16.6505H92.9236V25.1625ZM133.764 0.554514V5.96251H136.644V11.2105H133.764V16.9705H127.684V0.554514H133.764ZM116.26 11.3065C114.212 14.4425 110.756 16.6185 106.404 17.2265V12.0745C110.116 10.8585 112.196 8.04251 112.26 3.27452V0.970514H118.276V4.26651C118.276 5.13051 118.212 5.99451 118.052 6.82652C122.532 7.43451 125.604 10.9865 125.54 16.5545H119.652C119.684 14.1545 118.372 11.9145 116.26 11.3065ZM114.404 17.9625H127.332C131.876 17.9625 134.276 20.5225 134.276 24.2345C134.276 27.9145 131.876 30.5065 127.332 30.5065H114.404C109.796 30.5065 107.46 27.8505 107.46 24.2345C107.46 20.5865 109.796 17.9625 114.404 17.9625ZM115.78 26.2185H125.956C127.364 26.2185 128.1 25.4505 128.1 24.2345C128.1 22.9865 127.364 22.2185 125.956 22.2185H115.78C114.372 22.2185 113.636 22.9865 113.636 24.2345C113.636 25.4505 114.372 26.2185 115.78 26.2185ZM160.484 17.6105V0.554514H166.564V17.6105H160.484ZM148.452 11.3705C146.404 14.6345 142.884 16.9385 138.372 17.5785V12.3625C142.148 11.1145 144.324 8.20251 144.356 3.27452L144.388 0.970514H150.404V4.36251C150.404 5.19452 150.34 6.02651 150.18 6.82652C154.756 7.40252 157.892 11.0505 157.86 16.8745H151.94C151.972 14.3785 150.596 12.0105 148.452 11.3705ZM160.292 23.6585H139.684V18.9225H166.436V30.4105H160.292V23.6585ZM193.924 7.17851V0.554514H199.044V18.0905H193.924V11.8505H192.004V18.0905H186.884V0.554514H192.004V7.17851H193.924ZM179.684 1.19452H184.836V17.5145H170.116V1.19452H175.332V4.68251H179.684V1.19452ZM175.332 8.90652V13.0665H179.684V8.90652H175.332ZM192.612 24.0425H171.524V19.4025H198.756V30.4105H192.612V24.0425ZM229.604 11.7225H232.644V16.9705H229.604V30.4105H223.524V0.554514H229.604V11.7225ZM215.204 9.00251V6.50652H202.372V1.35452H220.996V8.71451C220.996 13.4505 220.612 17.0345 219.716 20.8745H213.924C214.884 16.1385 215.204 12.9385 215.204 9.00251ZM211.428 11.8825V24.2665H215.364C218.532 24.2665 220.26 24.1385 221.956 23.8825V28.8105C220.26 29.0665 218.532 29.1945 215.364 29.1945H201.764V24.2665H205.86V11.8825H211.428ZM5.46368 53.2454C5.4585 55.2033 6.56693 57.3425 8.60767 58.311L7.69607 59.549C6.26651 58.886 5.2306 57.5704 4.67121 56.0217C4.09628 57.6895 3.00857 59.0983 1.49614 59.7769L0.589717 58.5182C2.68226 57.5807 3.84766 55.3276 3.85284 53.2454V52.5514H1.0248V51.2513H3.84248V49.3245H5.47922V51.2513H8.26064V52.5514H5.46368V53.2454ZM9.53999 62.2734V49.0448H11.1716V54.2762H13.2123V55.6488H11.1716V62.2734H9.53999ZM18.7021 50.3915V55.2965H15.7342V57.8604C16.9151 57.8397 18.065 57.762 19.422 57.5393L19.5463 58.8653C17.8889 59.1501 16.5474 59.2019 15.0246 59.2071H14.1596V54.012H17.1171V51.6967H14.1441V50.3915H18.7021ZM19.3599 56.9747V55.6539H20.9086V53.6805H19.3599V52.3753H20.9086V49.2779H22.4521V61.6156H20.9086V56.9747H19.3599ZM23.6123 62.2734V49.0448H25.1558V62.2734H23.6123ZM37.4567 52.7845V54.0742H28.2785V49.5213H29.8997V52.7845H37.4567ZM26.7143 56.9022V55.6177H38.8189V56.9022H26.7143ZM28.1697 61.973V58.0728H29.7961V60.6522H37.5396V61.973H28.1697ZM46.8686 50.003C48.6607 50.0082 49.9867 51.4999 50.2198 53.9136H52.737V49.0448H54.353V62.3045H52.737V55.2292H50.2353C50.0644 57.7879 48.7125 59.3729 46.8686 59.3677C44.8796 59.3729 43.4656 57.56 43.476 54.6802C43.4656 51.8211 44.8796 50.0082 46.8686 50.003ZM45.035 54.6802C45.0298 56.7157 45.7809 57.8967 46.8686 57.8967C47.9666 57.8967 48.7073 56.7157 48.7125 54.6802C48.7073 52.6601 47.9666 51.474 46.8686 51.474C45.7809 51.474 45.0298 52.6601 45.035 54.6802ZM67.638 56.8142V58.0572H57.9523V56.8142H61.9975V55.6954H63.6239V56.8142H67.638ZM56.4865 55.2188V49.6301H59.905V50.8939H58.0766V53.9395C58.7033 53.9084 59.3404 53.8463 60.05 53.6909L60.1743 54.9702C59.0141 55.2137 58.1284 55.224 57.1028 55.2188H56.4865ZM58.9312 60.3984C58.9208 59.2071 60.3608 58.5338 62.7796 58.5234C65.1933 58.5338 66.6332 59.2071 66.6384 60.3984C66.6332 61.626 65.1933 62.2786 62.7796 62.2838C60.3608 62.2786 58.9208 61.626 58.9312 60.3984ZM60.5628 55.2188V49.6301H64.2662V50.8939H62.1736V53.9499C63.194 53.9291 63.8725 53.8618 64.6598 53.6805L64.7893 54.9702C63.7637 55.2033 62.9039 55.224 61.2516 55.2188H60.5628ZM60.656 60.3984C60.656 60.9112 61.4226 61.1546 62.7796 61.1546C64.1211 61.1546 64.8722 60.9112 64.8825 60.3984C64.8722 59.9063 64.1211 59.6681 62.7796 59.6629C61.4226 59.6681 60.656 59.9063 60.656 60.3984ZM63.8155 52.9191V51.6708H65.8252V49.0448H67.4257V56.0942H65.8252V52.9191H63.8155ZM80.5967 49.0448V62.2734H79.0584V49.0448H80.5967ZM69.0774 58.3318C71.8174 56.7054 73.076 54.6387 73.3195 51.9764H69.7507V50.6557H74.9407C74.9355 51.9298 74.7801 53.1367 74.4227 54.2554H76.2614V49.3659H77.7946V61.657H76.2614V55.5555H73.8892C73.1174 57.0731 71.8744 58.3991 70.0045 59.4868L69.0774 58.3318ZM90.7027 52.8C90.7027 54.9754 91.9769 57.2596 94.1057 58.1505L93.22 59.435C91.6557 58.7565 90.5059 57.3684 89.8999 55.685C89.2939 57.503 88.1336 59.031 86.5798 59.7665L85.6423 58.482C87.7348 57.5238 89.0349 55.0583 89.0452 52.8V51.6864H86.1291V50.3501H93.5929V51.6864H90.7027V52.8ZM95.0794 62.2734V49.0448H96.7213V62.2734H95.0794ZM110.037 49.0448V62.2734H108.468V55.5814H107.002V61.6156H105.474V49.2934H107.002V54.2503H108.468V49.0448H110.037ZM99.2432 58.9792V50.5572H100.875V57.5496C102.014 57.5289 103.263 57.4305 104.656 57.1612L104.827 58.5752C103.035 58.8912 101.517 58.9844 100.124 58.9792H99.2432ZM116.63 52.8C116.63 54.9754 117.905 57.2596 120.033 58.1505L119.148 59.435C117.583 58.7565 116.434 57.3684 115.828 55.685C115.222 57.503 114.061 59.031 112.508 59.7665L111.57 58.482C113.663 57.5238 114.963 55.0583 114.973 52.8V51.6864H112.057V50.3501H119.521V51.6864H116.63V52.8ZM121.007 62.2734V49.0448H122.649V62.2734H121.007ZM126.839 57.7309C126.849 55.8611 127.377 55.2914 128.294 54.7164C128.926 54.3228 129.403 53.8307 129.403 53.1004C129.403 52.2769 128.766 51.7537 127.968 51.7537C127.238 51.7537 126.533 52.2199 126.481 53.1936H124.648C124.705 51.2306 126.171 50.2258 127.978 50.2258C129.952 50.2258 131.314 51.329 131.314 53.0693C131.314 54.2606 130.718 55.0376 129.77 55.6073C128.921 56.1201 128.569 56.6277 128.553 57.7309V57.8656H126.839V57.7309ZM126.606 59.9581C126.595 59.3366 127.113 58.8342 127.74 58.8342C128.351 58.8342 128.869 59.3366 128.874 59.9581C128.869 60.5849 128.351 61.0925 127.74 61.0925C127.113 61.0925 126.595 60.5849 126.606 59.9581ZM147.023 49.0552V58.7306H145.397V53.8773H143.051V52.5617H145.397V49.0552H147.023ZM135.903 55.8611C138.011 55.1722 139.14 53.4423 139.14 51.6812V51.3238H136.379V50.0082H143.538V51.3238H140.798V51.6916C140.798 53.2817 141.865 54.9288 143.91 55.6073L143.097 56.897C141.616 56.3998 140.57 55.3846 139.995 54.1363C139.409 55.5244 138.311 56.6432 136.742 57.1819L135.903 55.8611ZM138.337 62.0248V57.876H139.964V60.704H147.355V62.0248H138.337ZM160.961 55.9284V57.2182H148.872V55.9284H154.093V54.9495H150.415V49.3867H159.521V50.6557H152.052V51.5569H159.195V52.7534H152.052V53.6961H159.619V54.9495H155.73V55.9284H160.961ZM150.301 60.1032C150.301 58.715 151.964 57.9433 154.911 57.9485C157.827 57.9433 159.495 58.715 159.5 60.1032C159.495 61.5172 157.827 62.2682 154.911 62.263C151.964 62.2682 150.301 61.5172 150.301 60.1032ZM151.933 60.1032C151.928 60.7454 152.922 61.051 154.911 61.0458C156.874 61.051 157.864 60.7454 157.874 60.1032C157.864 59.4713 156.874 59.1605 154.911 59.1605C152.922 59.1605 151.928 59.4713 151.933 60.1032ZM176.112 51.8366V53.1418H172.274V54.3383H177.51V55.6436H165.406V54.3383H170.653V53.1418H166.97V49.2209H168.576V51.8366H176.112ZM166.835 57.7517V56.493H176.024V59.8131H168.498V60.849H176.459V62.118H166.856V58.6633H174.413V57.7517H166.835ZM189.402 49.0448V62.3045H187.76V49.0448H189.402ZM178.81 54.6802C178.805 51.8211 180.26 50.0082 182.27 50.003C184.254 50.0082 185.714 51.8211 185.714 54.6802C185.714 57.56 184.254 59.3729 182.27 59.3677C180.26 59.3729 178.805 57.56 178.81 54.6802ZM180.379 54.6802C180.379 56.7157 181.141 57.8967 182.27 57.8967C183.378 57.8967 184.14 56.7157 184.14 54.6802C184.14 52.6601 183.378 51.474 182.27 51.474C181.141 51.474 180.379 52.6601 180.379 54.6802ZM193.581 49.7233V51.531H196.539V49.7233H198.15V52.1422H200.812V49.0448H202.438V56.2807H200.812V53.4889H198.15V55.8663H191.945V49.7233H193.581ZM193.581 54.5559H196.539V52.7948H193.581V54.5559ZM193.711 62.0973V56.8608H195.332V58.2126H200.812V56.8608H202.433V62.0973H193.711ZM195.332 60.7817H200.812V59.4764H195.332V60.7817ZM215.33 49.0448V62.3045H213.688V49.0448H215.33ZM204.738 54.6802C204.732 51.8211 206.188 50.0082 208.197 50.003C210.181 50.0082 211.642 51.8211 211.642 54.6802C211.642 57.56 210.181 59.3729 208.197 59.3677C206.188 59.3729 204.732 57.56 204.738 54.6802ZM206.307 54.6802C206.307 56.7157 207.068 57.8967 208.197 57.8967C209.306 57.8967 210.067 56.7157 210.067 54.6802C210.067 52.6601 209.306 51.474 208.197 51.474C207.068 51.474 206.307 52.6601 206.307 54.6802ZM231.46 49.5524V50.5572C231.46 51.5465 231.46 52.7171 231.159 54.1881H232.941V55.4934H227.668V57.27C230.077 57.4253 231.517 58.3162 231.522 59.7458C231.517 61.3618 229.75 62.2682 226.865 62.263C223.954 62.2682 222.188 61.3618 222.188 59.7458C222.188 58.3162 223.628 57.4305 226.052 57.27V55.4934H220.836V54.1881H229.522C229.802 52.8207 229.828 51.7848 229.833 50.8473H222.333V49.5524H231.46ZM223.83 59.7458C223.825 60.5538 224.907 60.9682 226.865 60.963C228.787 60.9682 229.875 60.5538 229.88 59.7458C229.875 58.9533 228.787 58.5493 226.865 58.5441C224.907 58.5493 223.825 58.9533 223.83 59.7458ZM244.423 49.6819V50.7126C244.423 51.7485 244.423 52.9139 244.092 54.473H245.905V55.7886H233.8V54.473H242.45C242.766 53.0434 242.792 51.9609 242.797 50.9923H235.297V49.6819H244.423ZM235.256 62.118V57.3321H244.403V62.118H235.256ZM236.851 60.8024H242.787V58.6063H236.851V60.8024ZM253.223 51.1477V52.4581H246.738V51.1477H249.193V49.4229H250.804V51.1477H253.223ZM247.111 56.2392C247.106 54.4316 248.323 53.1522 250.001 53.147C251.685 53.1522 252.886 54.4316 252.891 56.2392C252.886 58.0676 251.685 59.3521 250.001 59.3521C248.323 59.3521 247.106 58.0676 247.111 56.2392ZM248.546 56.2392C248.541 57.3062 249.141 57.9692 250.001 57.964C250.845 57.9692 251.451 57.3062 251.457 56.2392C251.451 55.1929 250.845 54.5041 250.001 54.5041C249.141 54.5041 248.541 55.1929 248.546 56.2392ZM253.772 61.6778V49.3245H255.3V54.4937H256.6V49.0448H258.149V62.2734H256.6V55.8093H255.3V61.6778H253.772ZM262.457 50.3708L262.292 57.8656H260.634L260.463 50.3708H262.457ZM260.329 59.9581C260.318 59.3366 260.836 58.8342 261.463 58.8342C262.074 58.8342 262.592 59.3366 262.597 59.9581C262.592 60.5849 262.074 61.0925 261.463 61.0925C260.836 61.0925 260.318 60.5849 260.329 59.9581ZM29.7524 83.3366V84.6729H17.6478V83.3366H22.8636V80.4516H18.9789V74.0652H28.3539V80.4516H24.4796V83.3366H29.7524ZM20.5794 79.1722H26.7483V75.3704H20.5794V79.1722ZM42.6956 79.628V80.9333H30.6116V79.628H42.6956ZM32.0982 86.0092V82.0935H33.709V84.6885H41.4317V86.0092H32.0982ZM32.0982 78.4212V73.5628H41.2297V74.8628H33.7246V77.1056H41.3489V78.4212H32.0982ZM58.2245 73.0448V79.8145H56.5981V76.4737H53.9617V75.1684H56.5981V73.0448H58.2245ZM47.0626 78.5973C49.1914 77.9499 50.2946 76.3183 50.305 74.5313V73.4747H51.9417V74.5313C51.9314 76.1629 53.0035 77.7116 55.0546 78.3383L54.1896 79.6021C52.7549 79.1256 51.719 78.1881 51.1389 76.9865C50.5588 78.3331 49.4762 79.3794 47.9172 79.8922L47.0626 78.5973ZM49.5021 81.6688V80.3998H58.2245V83.8131H51.1233V84.8283H58.6389V86.118H49.5229V82.6115H56.6085V81.6688H49.5021ZM70.5461 73.0448V75.6139H72.3952V76.9657H70.5461V79.6332H68.9094V73.0448H70.5461ZM60.6687 79.1722V73.6249H62.3054V77.8152C63.9836 77.7945 65.7809 77.6494 67.7077 77.2765L67.8994 78.6077C65.7032 79.0531 63.6832 79.1722 61.772 79.1722H60.6687ZM61.8807 81.4875V80.2081H70.5461V83.7095H63.5278V84.8024H70.9605V86.118H61.9014V82.4768H68.9042V81.4875H61.8807ZM87.7118 73.0448V80.9126H86.0854V77.6753H83.822V76.3442H86.0854V73.0448H87.7118ZM76.581 79.5814C78.7098 78.8563 79.8285 77.0745 79.8285 75.3186V75.2202H77.0678V73.9046H84.226V75.2202H81.486V75.3031C81.486 76.9243 82.553 78.5507 84.5989 79.2344L83.7857 80.5241C82.3147 80.0269 81.2685 79.0168 80.6883 77.7686C80.1082 79.1774 79.005 80.3169 77.4304 80.8711L76.581 79.5814ZM78.7253 83.7613C78.7201 82.1712 80.4345 81.2441 83.2315 81.2389C86.0336 81.2441 87.7481 82.1712 87.7481 83.7613C87.7481 85.3514 86.0336 86.2786 83.2315 86.2838C80.4345 86.2786 78.7201 85.3514 78.7253 83.7613ZM80.3465 83.7613C80.3361 84.5849 81.3876 85.0303 83.2315 85.02C85.0806 85.0303 86.1269 84.5849 86.1321 83.7613C86.1269 82.9326 85.0806 82.4923 83.2315 82.4923C81.3876 82.4923 80.3361 82.9326 80.3465 83.7613ZM101.691 83.3521V84.6833H89.5863V83.3521H94.8021V80.7727H90.9174V73.9202H92.549V76.0852H98.6816V73.9202H100.303V80.7727H96.4181V83.3521H101.691ZM92.549 79.4623H98.6816V77.3905H92.549V79.4623ZM105.135 83.9219L103.912 88.0293H102.519L103.27 83.9219H105.135ZM121.037 73.0448V79.8145H119.411V76.4737H116.774V75.1684H119.411V73.0448H121.037ZM109.875 78.5973C112.004 77.9499 113.107 76.3183 113.117 74.5313V73.4747H114.754V74.5313C114.744 76.1629 115.816 77.7116 117.867 78.3383L117.002 79.6021C115.567 79.1256 114.531 78.1881 113.951 76.9865C113.371 78.3331 112.289 79.3794 110.73 79.8922L109.875 78.5973ZM112.315 81.6688V80.3998H121.037V83.8131H113.936V84.8283H121.451V86.118H112.335V82.6115H119.421V81.6688H112.315ZM135.016 83.378V84.7454H122.911V83.378H128.112V80.7727H123.942V79.4934H125.817V75.5258H123.901V74.2154H133.959V75.5258H132.017V79.4934H133.908V80.7727H129.723V83.378H135.016ZM127.438 79.4934H130.411V75.5258H127.438V79.4934ZM146.638 79.9854V81.2751H137.351V74.0807H146.519V75.4015H139.004V76.9865H146.219V78.2762H139.004V79.9854H146.638ZM135.875 84.6729V83.3418H147.98V84.6729H135.875ZM160.26 73.0448V86.2734H158.696V73.0448H160.26ZM148.974 78.763C148.969 75.8521 150.098 74.0445 151.833 74.0496C153.433 74.0445 154.526 75.5517 154.713 78.0275H155.992V73.2727H157.541V85.6415H155.992V79.338H154.723C154.573 81.9278 153.465 83.5075 151.833 83.5075C150.098 83.5075 148.969 81.6895 148.974 78.763ZM150.481 78.763C150.471 80.8349 150.984 81.9537 151.833 81.9485C152.703 81.9537 153.231 80.8349 153.231 78.763C153.231 76.7016 152.703 75.5776 151.833 75.5828C150.984 75.5776 150.471 76.7016 150.481 78.763ZM166.693 76.2251C166.693 78.6802 167.868 81.0938 169.982 82.0262L168.992 83.3262C167.495 82.5907 166.444 81.1871 165.874 79.4571C165.299 81.2855 164.222 82.8031 162.699 83.5697L161.674 82.2489C163.828 81.2441 165.03 78.6905 165.04 76.2251V74.1066H166.693V76.2251ZM168.516 78.6387V77.3231H171.287V73.0448H172.903V86.3045H171.287V78.6387H168.516ZM188.82 73.0552V76.9139H190.607V78.2554H188.82V82.0054H187.189V73.0552H188.82ZM178.207 80.4205C179.202 80.4205 180.347 80.4153 181.543 80.3842V79.5659C180.072 79.3846 179.14 78.6802 179.15 77.6339C179.14 76.4219 180.419 75.6657 182.341 75.6708C184.267 75.6657 185.531 76.4219 185.542 77.6339C185.531 78.6698 184.62 79.3742 183.169 79.5607V80.3273C184.304 80.2703 185.443 80.1771 186.505 80.0372L186.624 81.1767C183.812 81.6688 180.714 81.6947 178.383 81.6999L178.207 80.4205ZM178.549 75.2979V74.1014H181.543V72.9412H183.169V74.1014H186.153V75.2979H178.549ZM179.87 83.8442V82.5752H188.82V86.2734H187.189V83.8442H179.87ZM180.709 77.6339C180.699 78.1881 181.31 78.53 182.341 78.5248C183.366 78.53 183.977 78.1881 183.977 77.6339C183.977 77.0642 183.366 76.7689 182.341 76.7689C181.31 76.7689 180.699 77.0642 180.709 77.6339ZM202.312 73.0552V82.6218H200.681V73.0552H202.312ZM191.529 77.2299C191.523 75.3031 193.082 73.9253 195.097 73.9253C197.112 73.9253 198.661 75.3031 198.661 77.2299C198.661 79.1878 197.112 80.5552 195.097 80.55C193.082 80.5552 191.523 79.1878 191.529 77.2299ZM193.119 77.2299C193.114 78.4057 193.963 79.1308 195.097 79.1308C196.201 79.1308 197.06 78.4057 197.06 77.2299C197.06 76.0852 196.201 75.3445 195.097 75.3445C193.963 75.3445 193.114 76.0852 193.119 77.2299ZM193.554 86.0248V81.6481H195.196V84.704H202.685V86.0248H193.554ZM214.624 73.0448V78.3176H216.664V79.6591H214.624V86.2734H213.013V73.0448H214.624ZM204.182 76.3856V75.07H207.31V73.2313H208.937V75.07H211.992V76.3856H204.182ZM204.793 80.3583C204.783 78.53 206.202 77.2403 208.134 77.2403C210.04 77.2403 211.454 78.53 211.464 80.3583C211.454 82.1867 210.04 83.4713 208.134 83.4713C206.202 83.4713 204.783 82.1867 204.793 80.3583ZM206.352 80.3583C206.342 81.4461 207.098 82.1349 208.134 82.1246C209.154 82.1349 209.895 81.4461 209.905 80.3583C209.895 79.2862 209.154 78.5766 208.134 78.5766C207.098 78.5766 206.342 79.2862 206.352 80.3583ZM221.351 76.5151C221.351 78.6491 222.092 80.8763 223.889 82.0003L222.988 83.2537C221.792 82.5389 221.02 81.301 220.58 79.8559C220.103 81.4461 219.254 82.7927 218.011 83.549L217.006 82.3421C218.922 81.1715 219.777 78.8407 219.777 76.5876V74.2154H221.351V76.5151ZM222.465 78.9443V77.6028H224.356V73.2727H225.883V85.6415H224.356V78.9443H222.465ZM227.075 86.2734V73.0448H228.639V86.2734H227.075ZM242.287 83.3366V84.6729H230.182V83.3366H232.979V79.9854C231.922 79.3794 231.285 78.4316 231.29 77.2558C231.285 75.1477 233.352 73.7544 236.206 73.7492C239.06 73.7544 241.142 75.1477 241.142 77.2558C241.142 78.4108 240.52 79.3432 239.495 79.9543V83.3366H242.287ZM232.886 77.2558C232.886 78.6128 234.222 79.4778 236.206 79.4778C238.174 79.4778 239.541 78.6128 239.541 77.2558C239.541 75.878 238.174 75.0441 236.206 75.0493C234.222 75.0441 232.886 75.878 232.886 77.2558ZM234.59 83.3366H237.848V80.5811C237.34 80.6898 236.791 80.7468 236.206 80.7468C235.631 80.7468 235.092 80.6898 234.59 80.5811V83.3366ZM244.751 85.0925C244.125 85.0925 243.607 84.5849 243.617 83.9581C243.607 83.3366 244.125 82.8342 244.751 82.8342C245.363 82.8342 245.881 83.3366 245.886 83.9581C245.881 84.5849 245.363 85.0925 244.751 85.0925Z" fill="#37392E"/>
</svg>
