<svg width="266" height="83" viewBox="0 0 266 83" fill="none" xmlns="http://www.w3.org/2000/svg">
<path d="M16.8375 10.168V11.9648H9.80627V17.8828H7.65784V11.9648H0.704712V10.168H16.8375ZM8.73206 0.851562C12.4821 0.871094 15.0992 2.39453 15.0992 4.81641C15.0992 7.21875 12.4821 8.72266 8.73206 8.72266C4.96252 8.72266 2.3844 7.21875 2.40393 4.81641C2.3844 2.39453 4.96252 0.871094 8.73206 0.851562ZM8.73206 2.60938C6.23206 2.60938 4.61096 3.42969 4.63049 4.81641C4.61096 6.18359 6.23206 7.00391 8.73206 7.00391C11.2321 7.00391 12.8531 6.18359 12.8531 4.81641C12.8531 3.42969 11.2321 2.60938 8.73206 2.60938ZM32.7164 0.226562V17.9023H30.568V0.226562H32.7164ZM27.2867 1.76953V8.39062H21.2125V11.9453C23.9957 11.9258 26.3981 11.7891 29.1422 11.3203L29.3375 13.0977C26.3297 13.625 23.693 13.7227 20.5289 13.7227H18.986V6.67188H25.0797V3.52734H18.9664V1.76953H27.2867ZM41.0172 1.45703C43.8102 1.4375 45.861 3.21484 45.8805 5.71484C45.861 8.23438 43.8102 9.99219 41.0172 9.99219C38.2438 9.99219 36.1735 8.23438 36.1735 5.71484C36.1735 3.21484 38.2438 1.4375 41.0172 1.45703ZM41.0172 3.33203C39.4742 3.33203 38.3219 4.25 38.3219 5.71484C38.3219 7.19922 39.4742 8.09766 41.0172 8.09766C42.5797 8.09766 43.7516 7.19922 43.7516 5.71484C43.7516 4.25 42.5797 3.33203 41.0172 3.33203ZM50.0016 0.226562V17.9023H47.8336V0.226562H50.0016ZM35.3727 12.4336C38.5563 12.4336 42.9703 12.3945 46.7789 11.8477L46.9547 13.4297C42.9899 14.1914 38.7516 14.2109 35.6461 14.2109L35.3727 12.4336ZM72.111 0.226562V9.26953H69.943V4.79688H66.4274V3.05859H69.943V0.226562H72.111ZM72.111 10.0312V14.6016H62.6383V15.9492H72.6774V17.668H60.5094V12.9805H69.9625V11.7305H60.4899V10.0312H72.111ZM63.7321 2.21875C63.7321 4.38672 65.1578 6.45703 67.8922 7.29688L66.7399 8.97656C64.8258 8.33203 63.4391 7.0918 62.6774 5.48047C61.8961 7.28711 60.4508 8.68359 58.361 9.36719L57.2281 7.62891C60.0602 6.76953 61.5446 4.60156 61.5446 2.21875V0.8125H63.7321V2.21875ZM88.5367 0.226562V3.66406H90.9977V5.46094H88.5367V9.01562H86.3688V0.226562H88.5367ZM77.5602 1.00781V6.57422C79.7965 6.55469 82.1989 6.36914 84.7672 5.87109L85.0211 7.64844C82.0914 8.25391 79.3961 8.41016 76.8375 8.39062H75.3727V1.00781H77.5602ZM88.5367 9.77734V14.4648H79.1813V15.9102H89.0836V17.668H77.0133V12.8047H86.3492V11.4961H76.9938V9.77734H88.5367ZM99.9235 0.5C103.947 0.5 106.271 1.57422 106.291 3.52734C106.271 5.5 103.947 6.55469 99.9235 6.57422C95.9 6.55469 93.5563 5.5 93.5563 3.52734C93.5563 1.57422 95.9 0.5 99.9235 0.5ZM99.9235 2.10156C97.2281 2.10156 95.8219 2.60938 95.8414 3.52734C95.8219 4.50391 97.2281 4.95312 99.9235 4.95312C102.658 4.95312 104.045 4.50391 104.045 3.52734C104.045 2.60938 102.658 2.10156 99.9235 2.10156ZM107.99 7.51172V9.25H91.8961V7.51172H107.99ZM105.978 10.4414V14.7578H95.9391V16.0664H106.466V17.7266H93.8102V13.2148H103.849V12.043H93.7906V10.4414H105.978ZM122.853 1.82812V3.60547H116.974V11.8281C119.728 11.8086 121.672 11.6914 123.869 11.2812L124.103 13.0391C121.623 13.5273 119.494 13.625 116.193 13.625H114.787V1.82812H122.853ZM128.752 0.226562V17.9023H126.584V8.21484H121.916V6.4375H126.584V0.226562H128.752ZM147.306 8.625V10.3438H140.314V12.1016H145.334V17.8828H143.166V13.8203H132.99V12.1016H138.166V10.3438H131.213V8.625H147.306ZM139.24 0.597656C143.107 0.597656 145.588 1.92578 145.607 4.07422C145.588 6.22266 143.107 7.53125 139.24 7.53125C135.373 7.53125 132.873 6.22266 132.873 4.07422C132.873 1.92578 135.373 0.597656 139.24 0.597656ZM139.24 2.29688C136.662 2.29688 135.119 2.94141 135.138 4.07422C135.119 5.20703 136.662 5.83203 139.24 5.83203C141.818 5.83203 143.361 5.20703 143.361 4.07422C143.361 2.94141 141.818 2.29688 139.24 2.29688ZM167.17 0.226562V3.78125H169.63V5.57812H167.17V9.09375H165.002V0.226562H167.17ZM167.17 9.85547V14.4844H157.795V15.9492H167.716V17.668H155.646V12.9023H165.002V11.5352H155.627V9.85547H167.17ZM158.127 0.8125C160.822 0.8125 162.795 2.43359 162.814 4.77734C162.795 7.08203 160.822 8.72266 158.127 8.72266C155.431 8.72266 153.42 7.08203 153.439 4.77734C153.42 2.43359 155.431 0.8125 158.127 0.8125ZM158.127 2.57031C156.642 2.57031 155.548 3.42969 155.568 4.77734C155.548 6.10547 156.642 7.00391 158.127 7.00391C159.611 7.00391 160.705 6.10547 160.705 4.77734C160.705 3.42969 159.611 2.57031 158.127 2.57031ZM176.74 5.83203C176.74 8.44922 178.224 11.3008 180.939 12.5898L179.728 14.2305C177.824 13.3418 176.437 11.5938 175.705 9.52344C174.923 11.75 173.468 13.6348 171.447 14.543L170.255 12.8633C173.029 11.6133 174.591 8.60547 174.591 5.83203V4.91406H170.822V3.17578H174.591V0.597656H176.759V3.17578H180.47V4.91406H176.74V5.83203ZM184.357 0.226562V7.21875H187.072V9.03516H184.357V17.8828H182.189V0.226562H184.357ZM202.228 1.84766V3.54688C202.209 5.73438 202.209 8.19531 201.525 11.8867L199.338 11.6523C200.021 8.21484 200.021 5.70508 200.041 3.58594H189.494V1.84766H202.228ZM203.908 13.8203V15.5977H187.814V13.8203H193.752V7.6875H195.9V13.8203H203.908ZM225.939 7.51172V9.25H209.845V7.51172H225.939ZM223.927 10.4414V14.7773H213.888V16.0664H224.416V17.7266H211.759V13.2344H221.798V12.043H211.74V10.4414H223.927ZM224.494 0.832031V2.55078H219.24C219.679 3.85938 221.857 5.00195 225.177 5.22656L224.494 6.90625C221.33 6.65234 218.937 5.58789 217.873 4.01562C216.808 5.57812 214.445 6.65234 211.31 6.90625L210.627 5.22656C213.918 5.00195 216.066 3.85938 216.525 2.55078H211.31V0.832031H224.494ZM241.916 0.226562V9.75781H239.748V6.16406H236.33V4.42578H239.748V0.226562H241.916ZM236.31 1.24219C236.31 5.87109 233.439 8.83984 228.146 10.1875L227.326 8.46875C231.476 7.47266 233.625 5.5 233.966 3.01953H228.244V1.24219H236.31ZM232.404 10.5586V12.4336H239.748V10.5586H241.916V17.668H230.216V10.5586H232.404ZM232.404 15.9297H239.748V14.1328H232.404V15.9297ZM259.65 0.226562V17.8828H257.58V0.226562H259.65ZM255.9 0.65625V17.043H253.849V8.91797H250.705C249.67 10.9492 248.009 12.707 245.509 14.1523L244.279 12.6094C247.941 10.4512 249.611 7.6875 249.943 4.13281H245.177V2.375H252.091C252.091 4.08398 251.886 5.68555 251.408 7.17969H253.849V0.65625H255.9ZM265.138 14.7578L263.498 20.2266H261.642L262.658 14.7578H265.138Z" fill="#37392E"/>
<path d="M98.5982 60.9525H89.4782V50.2965H82.3261V43.0485H89.4782V38.0085H98.5982V60.9525ZM70.7582 53.2725C67.7342 57.5445 62.6941 60.4725 56.4061 61.2885V53.7045C61.8301 52.0245 64.8542 48.1365 64.9981 41.6085L65.0461 38.3925H73.9262V42.8565C73.9262 44.1525 73.7821 45.4485 73.5422 46.6965C80.1181 47.5125 84.6302 52.6005 84.5821 60.2805H75.8462C75.7982 57.0165 73.8781 53.9925 70.7582 53.2725ZM68.0221 74.9685V77.2725H99.3182V82.7925H58.6141V70.0725H89.5262V67.8165H58.6141V62.3925H98.5502V74.9685H68.0221ZM105.174 39.3045H145.782V46.7445H105.174V39.3045ZM139.302 58.2165H146.358V65.2725H104.598V58.2165H111.654V48.9525H120.966V58.2165H129.99V48.9525H139.302V58.2165ZM130.134 67.0005V74.2005H147.558V81.5925H103.398V74.2005H120.822V67.0005H130.134ZM153.174 39.1605H193.11V46.1205H162.438V49.9605H192.822V56.6805H162.438V60.5205H193.878V67.4325H153.174V39.1605ZM151.398 73.9605H195.558V81.5925H151.398V73.9605ZM210.054 69.7845H200.742V39.6405H210.054V69.7845ZM210.054 81.8325H200.742V72.6165H210.054V81.8325Z" fill="#FC6736"/>
</svg>
