<svg width="36" height="35" viewBox="0 0 36 35" fill="none" xmlns="http://www.w3.org/2000/svg">
<path d="M17.8039 33.3361L9.86162 34L10.55 26.3398L27.0699 10.5086C27.3165 10.2654 27.6109 10.0722 27.936 9.94023C28.2611 9.8083 28.6102 9.74034 28.9629 9.74034C29.3155 9.74034 29.6646 9.8083 29.9897 9.94023C30.3148 10.0722 30.6092 10.2654 30.8558 10.5086L34.218 13.777C34.4658 14.0145 34.6625 14.297 34.7967 14.6081C34.9309 14.9192 35 15.2529 35 15.5899C35 15.9269 34.9309 16.2605 34.7967 16.5717C34.6625 16.8828 34.4658 17.1653 34.218 17.4028L17.8039 33.3361ZM1.69694 9.76811C0.767688 9.61235 0.767688 8.32543 1.69694 8.16967C3.34227 7.89348 4.86506 7.15098 6.07116 6.03682C7.27727 4.92267 8.11204 3.48733 8.46907 1.91381L8.52467 1.66613C8.72587 0.782649 10.0337 0.774989 10.2455 1.66102L10.3117 1.94701C10.6818 3.51353 11.5235 4.93966 12.7312 6.0463C13.9389 7.15295 15.4587 7.89077 17.0997 8.16712C18.0342 8.32032 18.0342 9.6149 17.0997 9.77322C15.4586 10.0489 13.9385 10.7862 12.7303 11.8924C11.5221 12.9986 10.6798 14.4244 10.309 15.9908L10.2402 16.2793C10.0311 17.1628 8.72322 17.1577 8.52202 16.2717L8.46907 16.024C8.11169 14.4498 7.27612 13.0139 6.069 11.8997C4.86188 10.7855 3.33794 10.0434 1.69164 9.76811H1.69694Z" stroke="#B5B5B5" stroke-width="1.5" stroke-linecap="round" stroke-linejoin="round"/>
</svg>
