<svg width="208" height="42" viewBox="0 0 208 42" fill="none" xmlns="http://www.w3.org/2000/svg">
<path d="M46.2611 0.0124309V9.0732H43.7749V4.64641H40.4392V2.67127H43.7749V0.0124309H46.2611ZM31.1367 7.22928C34.0925 6.36602 35.4047 4.19061 35.4116 1.89088V0.606353H37.9392V1.89088C37.9254 4.02486 39.1616 6.07597 42 6.9116L40.6878 8.83149C38.7887 8.22376 37.4627 7.03591 36.6892 5.50967C35.9157 7.21547 34.5069 8.54834 32.4351 9.20442L31.1367 7.22928ZM34.4378 11.7251V9.79834H46.2611V14.5635H36.9171V15.6409H46.7721V17.6022H34.4655V12.7403H43.7887V11.7251H34.4378ZM62.6691 0.0124309V3.34807H65.0586V5.39917H62.6691V8.81077H60.1691V0.0124309H62.6691ZM49.2783 8.31354V0.799724H51.7783V6.24862C53.9122 6.20718 56.2258 6.02072 58.6843 5.5511L58.9675 7.58149C56.0462 8.16851 53.3183 8.31354 50.7976 8.31354H49.2783ZM50.8736 11.4834V9.54282H62.6691V14.4323H53.3943V15.6064H63.1802V17.6022H50.9012V12.5608H60.1484V11.4834H50.8736ZM86.6769 8.41022V10.3715H70.4615V8.41022H77.3054V7.20166C74.0941 6.95994 72.0775 5.70994 72.0844 3.79696C72.0775 1.60773 74.6258 0.295579 78.5554 0.295579C82.5126 0.295579 85.0126 1.60773 85.0195 3.79696C85.0126 5.71685 83.0098 6.97376 79.7501 7.20166V8.41022H86.6769ZM72.3123 14.5635C72.3123 12.4434 74.6465 11.297 78.5347 11.3039C82.3813 11.297 84.7156 12.4434 84.7294 14.5635C84.7156 16.6077 82.3813 17.7818 78.5347 17.7749C74.6465 17.7818 72.3123 16.6077 72.3123 14.5635ZM74.6742 3.79696C74.6604 4.79834 76.0761 5.30249 78.5554 5.30249C81.0139 5.30249 82.4504 4.79834 82.4504 3.79696C82.4504 2.76795 81.0139 2.23619 78.5554 2.23619C76.0761 2.23619 74.6604 2.76795 74.6742 3.79696ZM74.8537 14.5635C74.8399 15.4613 76.0761 15.924 78.5347 15.9171C80.9518 15.924 82.2225 15.4613 82.2294 14.5635C82.2225 13.6381 80.9518 13.1754 78.5347 13.1754C76.0761 13.1754 74.8399 13.6381 74.8537 14.5635ZM102.678 0.0124309V17.8025H100.157V0.0124309H102.678ZM87.8019 12.768C92.3875 10.5925 94.411 7.78867 94.8115 3.8384H88.7549V1.88398H97.353C97.3461 7.27072 95.4538 11.7528 89.1002 14.75L87.8019 12.768ZM114.348 6.38674V8.52762H121.247V10.5235H105.032V8.52762H111.876V6.38674H114.348ZM105.729 5.45442C109.03 5.14365 110.854 3.97652 111.309 2.74724H106.503V0.779005H119.783V2.74724H114.942C115.391 3.96961 117.207 5.14365 120.543 5.45442L119.659 7.39503C116.309 7.07044 114.058 5.82735 113.112 4.11464C112.173 5.82735 109.949 7.07044 106.599 7.39503L105.729 5.45442ZM106.883 14.6464C106.883 12.6298 109.217 11.511 113.105 11.5041C116.986 11.511 119.286 12.6298 119.3 14.6464C119.286 16.6768 116.986 17.8025 113.105 17.7956C109.217 17.8025 106.883 16.6768 106.883 14.6464ZM109.424 14.6464C109.41 15.5235 110.626 15.9378 113.105 15.9378C115.543 15.9378 116.793 15.5235 116.8 14.6464C116.793 13.8039 115.543 13.4033 113.105 13.4033C110.626 13.4033 109.41 13.8039 109.424 14.6464ZM137.248 0.0124309V17.8025H134.727V0.0124309H137.248ZM122.372 12.768C126.958 10.5925 128.981 7.78867 129.382 3.8384H123.325V1.88398H131.923C131.916 7.27072 130.024 11.7528 123.671 14.75L122.372 12.768ZM160.468 13.6865V15.7169H144.211V13.6865H151.069V10.0401H145.931V1.33149H158.659V10.0401H153.535V13.6865H160.468ZM148.39 8.08564H156.2V3.32735H148.39V8.08564ZM166.393 1.26934C167.988 1.26934 169.314 2.14641 170.129 3.67265H174.024V0.0124309H176.49V17.8439H174.024V11.1796H170.309C169.521 12.9406 168.113 13.9489 166.393 13.9489C163.693 13.9489 161.766 11.5041 161.773 7.5953C161.766 3.7279 163.693 1.26934 166.393 1.26934ZM164.162 7.5953C164.155 10.2541 165.067 11.6906 166.393 11.6906C167.733 11.6906 168.624 10.2541 168.631 7.5953C168.624 4.96409 167.733 3.52072 166.393 3.52072C165.067 3.52072 164.155 4.96409 164.162 7.5953ZM170.82 5.68232C170.93 6.26934 170.992 6.9116 170.992 7.5953C170.992 8.1547 170.951 8.68646 170.875 9.1837H174.024V5.68232H170.82ZM14.764 24.0124V30.9807H17.3883V33.0318H14.764V41.8025H12.2985V24.0124H14.764ZM0.647974 28.6671V26.6713H4.67422V24.2956H7.1604V26.6713H11.0969V28.6671H0.647974ZM1.36621 33.9019C1.3593 31.4227 3.293 29.6616 5.91731 29.6616C8.50709 29.6616 10.4477 31.4227 10.4546 33.9019C10.4477 36.3881 8.50709 38.1354 5.91731 38.1423C3.293 38.1354 1.3593 36.3881 1.36621 33.9019ZM3.75571 33.9019C3.7488 35.2831 4.6604 36.105 5.91731 36.0981C7.1604 36.105 8.05819 35.2831 8.07201 33.9019C8.05819 32.5414 7.1604 31.6989 5.91731 31.6851C4.6604 31.6989 3.7488 32.5414 3.75571 33.9019ZM32.9608 24.0124V41.8025H30.44V24.0124H32.9608ZM18.0851 36.768C22.6707 34.5925 24.6942 31.7887 25.0947 27.8384H19.0381V25.884H27.6362C27.6293 31.2707 25.737 35.7528 19.3834 38.75L18.0851 36.768ZM49.2406 29.3232V30.9599H56.1605V32.942H39.9036V30.9599H46.7683V29.3232H49.2406ZM40.608 28.4738C43.7987 28.3011 45.6219 27.3688 46.1467 26.3467H41.3953V24.4613H54.6757V26.3467H49.876C50.3871 27.3826 52.1757 28.3011 55.4285 28.4738L54.6412 30.3246C51.2158 30.0898 48.9299 28.9986 48.0183 27.4033C47.1067 28.9917 44.8208 30.0898 41.4022 30.3246L40.608 28.4738ZM41.3815 36.6229V34.7652H46.7545V33.4461H49.2545V34.7652H54.6274V36.6229H41.3815ZM42.5348 39.4959C42.5348 37.9696 44.5031 37.1478 47.9837 37.1409C51.4299 37.1478 53.4672 37.9696 53.4741 39.4959C53.4672 41.0428 51.4299 41.8577 47.9837 41.8577C44.5031 41.8577 42.5348 41.0428 42.5348 39.4959ZM45.1039 39.4959C45.097 39.9862 46.0846 40.221 47.9837 40.2072C49.9243 40.221 50.8636 39.9862 50.8705 39.4959C50.8636 38.9848 49.9243 38.8052 47.9837 38.7983C46.0846 38.8052 45.097 38.9848 45.1039 39.4959ZM73.425 33.1077V35.0898H57.2095V33.1077H73.425ZM58.8324 28.1975C58.8255 25.9323 61.3946 24.558 65.3034 24.558C69.1985 24.558 71.7606 25.9323 71.7675 28.1975C71.7606 30.4765 69.1985 31.8785 65.3034 31.8785C61.3946 31.8785 58.8255 30.4765 58.8324 28.1975ZM59.1639 41.4917V36.2845H61.6639V39.482H71.5741V41.4917H59.1639ZM61.4222 28.1975C61.4084 29.3094 62.838 29.8619 65.3034 29.855C67.762 29.8619 69.1985 29.3094 69.1985 28.1975C69.1985 27.1271 67.762 26.5401 65.3034 26.5331C62.838 26.5401 61.4084 27.1271 61.4222 28.1975ZM94.0833 24.0401V37.0166H91.5971V30.6492H88.6897V28.6395H91.5971V24.0401H94.0833ZM79.0004 33.018C81.9355 32.0925 83.2684 29.7721 83.2753 27.5V27.2307H79.7118V25.2348H89.3527V27.2307H85.8098V27.5138C85.8098 29.5787 87.0736 31.7818 89.8982 32.7003L88.669 34.6754C86.7007 34.0331 85.3471 32.7348 84.5736 31.1326C83.7864 32.9075 82.3706 34.337 80.2781 35.0345L79.0004 33.018ZM82.2877 41.4917V35.884H84.7739V39.482H94.5046V41.4917H82.2877ZM112.605 33.1837V35.1381H96.3478V33.1837H103.212V32.0856H98.385V24.4475H110.705V26.3743H100.871V27.3619H110.291V29.1713H100.871V30.1865H110.857V32.0856H105.712V33.1837H112.605ZM98.24 38.8674C98.24 36.9959 100.491 35.9392 104.462 35.9461C108.385 35.9392 110.643 36.9959 110.657 38.8674C110.643 40.7873 108.385 41.8025 104.462 41.7956C100.491 41.8025 98.24 40.7873 98.24 38.8674ZM100.733 38.8674C100.726 39.6271 101.914 39.9586 104.462 39.9517C106.969 39.9586 108.15 39.6271 108.157 38.8674C108.15 38.1215 106.969 37.7901 104.462 37.7901C101.914 37.7901 100.726 38.1215 100.733 38.8674ZM132.655 27.5345V29.5166H127.648V30.953H134.52V32.9282H118.263V30.953H125.162V29.5166H120.3V24.2265H122.766V27.5345H132.655ZM120.121 35.8218V33.9088H132.572V38.5635H122.655V39.6754H133.132V41.6022H120.141V36.8163H130.107V35.8218H120.121ZM150.445 24.0124V41.8439H147.924V24.0124H150.445ZM136.087 31.5953C136.08 27.7279 138.069 25.2693 140.79 25.2693C143.476 25.2693 145.465 27.7279 145.472 31.5953C145.465 35.5041 143.476 37.9489 140.79 37.9489C138.069 37.9489 136.08 35.5041 136.087 31.5953ZM138.497 31.5953C138.483 34.2541 139.409 35.6906 140.79 35.6906C142.143 35.6906 143.062 34.2541 143.062 31.5953C143.062 28.9641 142.143 27.5207 140.79 27.5207C139.409 27.5207 138.483 28.9641 138.497 31.5953ZM158.151 25.076C160.886 25.0829 163.006 26.8854 163.02 29.4337C163.006 31.5815 161.514 33.1906 159.415 33.6533V36.0912C160.81 36.0152 162.212 35.9047 163.524 35.7251L163.697 37.5691C159.995 38.2666 155.989 38.2666 152.971 38.2251L152.64 36.2155C153.918 36.2086 155.389 36.2086 156.929 36.174V33.6671C154.753 33.2251 153.255 31.6091 153.268 29.4337C153.255 26.8854 155.34 25.0829 158.151 25.076ZM155.699 29.4337C155.692 30.8356 156.742 31.6851 158.151 31.6713C159.518 31.6851 160.561 30.8356 160.568 29.4337C160.561 28.018 159.518 27.1961 158.151 27.1892C156.742 27.1961 155.692 28.018 155.699 29.4337ZM164.47 41.8025V24.0124H166.97V30.9945H169.387V33.087H166.97V41.8025H164.47ZM183.015 34.9102C186.724 34.9033 189.017 36.174 189.017 38.3425C189.017 40.5387 186.724 41.8163 183.015 41.8232C179.258 41.8163 176.924 40.5387 176.931 38.3425C176.924 36.174 179.258 34.9033 183.015 34.9102ZM175.273 33.4876V25.1381H177.746V27.3895H181.392V25.1381H183.878V33.4876H175.273ZM177.746 31.5331H181.392V29.3163H177.746V31.5331ZM179.424 38.3425C179.417 39.3577 180.688 39.8757 183.015 39.8757C185.329 39.8757 186.558 39.3577 186.558 38.3425C186.558 37.3273 185.329 36.8439 183.015 36.837C180.688 36.8439 179.417 37.3273 179.424 38.3425ZM186.351 34.5028V24.0124H188.851V28.1561H191.24V30.2348H188.851V34.5028H186.351ZM195.286 24.9309V27.203H198.788V24.9309H201.253V28.0801H204.527V24.0124H207.013V33.75H204.527V30.1243H201.253V33.2389H192.786V24.9309H195.286ZM195.155 41.5677V34.4889H197.621V36.1326H204.527V34.4889H207.006V41.5677H195.155ZM195.286 31.2431H198.788V29.116H195.286V31.2431ZM197.621 39.5718H204.527V38.0387H197.621V39.5718Z" fill="#37392E"/>
</svg>
