<svg width="234" height="59" viewBox="0 0 234 59" fill="none" xmlns="http://www.w3.org/2000/svg">
<path d="M11.8188 0.0615234V6.84375H10.1929V3.48926H7.55615V2.18555H10.1929V0.0615234H11.8188ZM11.8188 7.41504V10.8428H4.71436V11.8535H12.2437V13.1426H3.11768V9.62695H10.2075V8.68945H3.10303V7.41504H11.8188ZM5.53467 1.55566C5.53467 3.18164 6.604 4.73438 8.65479 5.36426L7.79053 6.62402C6.35498 6.14062 5.31494 5.21045 4.74365 4.00195C4.15771 5.35693 3.07373 6.4043 1.50635 6.91699L0.656738 5.61328C2.78076 4.96875 3.89404 3.34277 3.89404 1.55566V0.500977H5.53467V1.55566ZM24.1382 0.0615234V2.63965H25.9839V3.9873H24.1382V6.65332H22.5122V0.0615234H24.1382ZM15.9058 0.647461V4.82227C17.583 4.80762 19.3848 4.66846 21.311 4.29492L21.5015 5.62793C19.3042 6.08203 17.2827 6.19922 15.3638 6.18457H14.2651V0.647461H15.9058ZM24.1382 7.22461V10.7402H17.1216V11.8242H24.5483V13.1426H15.4956V9.49512H22.4976V8.51367H15.481V7.22461H24.1382ZM29.2358 10.96L28.0054 15.0615H26.6138L27.3755 10.96H29.2358ZM45.4077 0.0615234V13.3037H43.8403V6.60938H42.3755V12.6299H40.8521V0.310547H42.3755V5.27637H43.8403V0.0615234H45.4077ZM36.2524 1.58496V8.57227C37.395 8.55029 38.6475 8.45508 40.0317 8.17676L40.1929 9.59766C38.4058 9.91992 36.897 10.0078 35.4907 10.0078H34.6118V1.58496H36.2524ZM55.2954 3.24023C55.2808 5.59863 56.4673 8.00098 58.5181 8.98242L57.522 10.2861C56.0864 9.56104 55.0537 8.16211 54.4897 6.47754C53.9111 8.2793 52.8271 9.77344 51.311 10.5352L50.3149 9.23145C52.439 8.2207 53.6548 5.68652 53.6694 3.24023V1.13086H55.2954V3.24023ZM60.9351 0.0615234V5.24707H62.9712V6.63867H60.9351V13.3037H59.3091V0.0615234H60.9351ZM73.9722 0.0761719V3.29883H75.8325V4.66113H73.9722V7.94238H72.3462V0.0761719H73.9722ZM73.9722 8.52832V13.1426H65.4028V8.52832H73.9722ZM66.9995 9.80273V11.8242H72.3755V9.80273H66.9995ZM70.0757 0.75V4.63184H65.6665V6.05273C67.915 6.04541 69.4531 5.97217 71.2622 5.67188L71.438 6.96094C69.4604 7.32715 67.7466 7.38574 65.1245 7.38574H64.0405V3.40137H68.479V2.05371H64.0259V0.75H70.0757ZM88.5767 5.36426V6.65332H76.4917V5.36426H88.5767ZM87.1411 3.22559V4.51465H78.0298V0.398438H87.0239V1.70215H79.6558V3.22559H87.1411ZM87.0532 7.56152V10.8867H79.5239V11.8975H87.4194V13.1719H77.9272V9.71484H85.4565V8.79199H77.9126V7.56152H87.0532ZM95.4761 0.266602C98.4937 0.266602 100.237 1.07227 100.251 2.53711C100.237 4.0166 98.4937 4.80762 95.4761 4.82227C92.4585 4.80762 90.7007 4.0166 90.7007 2.53711C90.7007 1.07227 92.4585 0.266602 95.4761 0.266602ZM95.4761 1.46777C93.4546 1.46777 92.3999 1.84863 92.4146 2.53711C92.3999 3.26953 93.4546 3.60645 95.4761 3.60645C97.5269 3.60645 98.5669 3.26953 98.5669 2.53711C98.5669 1.84863 97.5269 1.46777 95.4761 1.46777ZM101.526 5.52539V6.8291H89.4556V5.52539H101.526ZM100.017 7.72266V10.96H92.4878V11.9414H100.383V13.1865H90.8911V9.80273H98.4204V8.92383H90.8765V7.72266H100.017ZM110.3 0.647461C112.307 0.632812 113.772 1.77539 113.772 3.43066C113.772 5.05664 112.307 6.21387 110.3 6.19922C108.308 6.21387 106.858 5.05664 106.858 3.43066C106.858 1.77539 108.308 0.632812 110.3 0.647461ZM110.3 1.96582C109.216 1.95117 108.425 2.52246 108.44 3.43066C108.425 4.32422 109.216 4.86621 110.3 4.86621C111.428 4.86621 112.219 4.32422 112.219 3.43066C112.219 2.52246 111.428 1.95117 110.3 1.96582ZM117.053 0.0761719V13.2891H115.442V0.0761719H117.053ZM105.994 7.10742C108.381 7.10742 111.721 7.06348 114.578 6.63867L114.695 7.83984C113.552 8.05957 112.366 8.19873 111.208 8.2793V12.8936H109.568V8.38184C108.345 8.43311 107.195 8.44043 106.199 8.45508L105.994 7.10742ZM129.387 0.0761719V4.23633H131.233V5.58398H129.387V9.96387H127.761V0.0761719H129.387ZM126.809 1.54102V2.84473H118.958V1.54102H122.078V0.0615234H123.704V1.54102H126.809ZM122.883 3.38672C124.788 3.38672 126.106 4.39746 126.121 5.9209C126.106 7.42969 124.788 8.42578 122.883 8.42578C120.964 8.42578 119.631 7.42969 119.631 5.9209C119.631 4.39746 120.964 3.38672 122.883 3.38672ZM122.883 4.64648C121.873 4.64648 121.213 5.11523 121.213 5.9209C121.213 6.71191 121.873 7.18066 122.883 7.16602C123.894 7.18066 124.568 6.71191 124.568 5.9209C124.568 5.11523 123.894 4.64648 122.883 4.64648ZM129.915 11.7217V13.04H120.906V9.1875H122.532V11.7217H129.915ZM147.537 6.43359V7.7373H135.466V6.43359H138.279V4.74902C137.283 4.33154 136.711 3.66504 136.711 2.80078C136.711 1.21875 138.572 0.28125 141.487 0.28125C144.402 0.28125 146.248 1.21875 146.262 2.80078C146.255 3.67236 145.684 4.33887 144.68 4.74902V6.43359H147.537ZM141.487 8.54297C144.343 8.52832 146.057 9.37793 146.072 10.9014C146.057 12.4395 144.343 13.2744 141.487 13.2744C138.601 13.2744 136.873 12.4395 136.873 10.9014C136.873 9.37793 138.601 8.52832 141.487 8.54297ZM141.487 9.77344C139.553 9.77344 138.513 10.1543 138.528 10.9014C138.513 11.6484 139.553 12.0439 141.487 12.0439C143.376 12.0439 144.431 11.6484 144.446 10.9014C144.431 10.1543 143.376 9.77344 141.487 9.77344ZM141.487 1.54102C139.524 1.54102 138.396 1.98047 138.411 2.80078C138.396 3.60645 139.524 4.03125 141.487 4.03125C143.435 4.03125 144.578 3.60645 144.578 2.80078C144.578 1.98047 143.435 1.54102 141.487 1.54102ZM139.919 6.43359H143.054V5.17383C142.578 5.23975 142.051 5.27637 141.487 5.27637C140.923 5.27637 140.396 5.23975 139.919 5.17383V6.43359ZM160.515 6.8877V8.19141H148.43V6.8877H153.645V5.45215H149.91V0.720703H159.05V2.03906H151.536V4.13379H159.167V5.45215H155.286V6.8877H160.515ZM159.255 11.7217V13.04H149.924V9.1875H151.521V11.7217H159.255ZM166.169 0.896484L162.756 13.5967H161.116L164.543 0.896484H166.169ZM171.589 2.40527C171.589 4.16309 172.644 5.87695 174.695 6.58008L173.801 7.85449C172.373 7.3125 171.348 6.27979 170.798 4.9834C170.22 6.43359 169.143 7.5835 167.59 8.16211L166.726 6.87305C168.85 6.15527 169.934 4.32422 169.949 2.39062V0.881836H171.589V2.40527ZM177.859 0.0761719V9.90527H176.233V4.32422H173.596V2.99121H176.233V0.0761719H177.859ZM178.152 11.7217V13.04H169.128V8.83594H170.784V11.7217H178.152ZM191.804 5.4375V6.72656H186.56V7.72266H190.295V10.9746H182.766V11.9414H190.662V13.1865H181.169V9.80273H188.699V8.95312H181.155V7.72266H184.934V6.72656H179.734V5.4375H191.804ZM190.251 0.47168V4.60254H181.257V0.47168H190.251ZM182.854 1.74609V3.32812H188.625V1.74609H182.854ZM208.328 8.01562V9.34863H203.083V13.3184H201.472V9.34863H196.257V8.01562H208.328ZM207.2 1.62891V2.91797H203.113C203.267 4.229 204.988 5.59863 207.639 5.9209L207.039 7.20996C204.849 6.93164 203.149 5.96484 202.292 4.69043C201.421 5.97949 199.707 6.93164 197.502 7.20996L196.917 5.9209C199.561 5.59863 201.296 4.25098 201.458 2.91797H197.371V1.62891H201.472V0.0761719H203.083V1.62891H207.2ZM213.982 3.19629C213.982 4.77832 215.081 6.30176 217.175 6.94629L216.384 8.2207C214.883 7.7666 213.799 6.80713 213.191 5.58398C212.605 6.90234 211.514 7.94238 209.968 8.44043L209.177 7.16602C211.257 6.50684 212.356 4.89551 212.356 3.19629V2.99121H209.587V1.70215H212.356V0.149414H213.997V1.70215H216.75V2.99121H213.982V3.19629ZM220.31 0.0761719V9.90527H218.684V5.32031H216.311V4.0166H218.684V0.0761719H220.31ZM220.647 11.7217V13.04H211.624V9.05566H213.25V11.7217H220.647ZM233.245 0.0615234V13.3037H231.604V0.0615234H233.245ZM229.29 1.46777C229.29 5.4082 227.766 8.7627 223.123 10.96L222.273 9.65625C225.737 8.0083 227.349 5.76709 227.634 2.75684H222.947V1.46777H229.29ZM79.0956 51.072H73.0156V37.632H68.2476V32.64H73.0156V28.576H79.0956V51.072ZM60.6956 40C58.6796 43.328 55.2556 45.6 50.9036 46.24V41.024C54.5516 39.712 56.5996 36.736 56.6316 31.712V29.152H62.6156V32.736C62.6156 33.664 62.5516 34.528 62.3916 35.392C66.8716 36.16 69.8476 39.84 69.7516 45.536H63.8956C63.9916 43.008 62.7436 40.704 60.6956 40ZM58.7116 47.584V53.696H79.7036V58.432H52.5356V47.584H58.7116ZM83.3836 28.864H110.648V38.88H83.3836V28.864ZM89.4316 34.88H104.6V32.864H89.4316V34.88ZM111.736 40.384V44.192H100.12V45.76H110.68V53.664H89.8156V54.976H111.192V58.432H83.2236V50.496H104.088V49.184H83.2236V45.76H93.9116V44.192H82.2956V40.384H111.736ZM152.32 45.696H146.336C145.472 43.136 141.792 41.12 137.728 41.696C134.784 44.192 129.984 45.728 123.808 45.856V41.12C130.496 40.8 134.336 38.432 134.816 35.456H124.48V30.784H134.72V27.968H141.248L141.28 30.784H151.488V35.456H141.024C140.992 36.16 140.864 36.864 140.64 37.504C146.208 37.184 151.648 39.872 152.32 45.696ZM123.264 47.008H152.704V51.936H141.088V58.592H134.88V51.936H123.264V47.008ZM173.696 41.312V36.64H177.984V28.576H184.064V51.072H177.984V41.312H173.696ZM165.088 42.88C162.848 45.376 159.36 47.008 155.616 47.072V42.496C159.488 41.984 162.08 39.232 162.08 36.352V36.192H155.776V31.424H161.952V28.608H167.776V31.424H173.76V36.192H167.68V36.352C167.68 37.12 167.584 37.856 167.392 38.592C171.552 38.912 174.816 41.76 174.72 46.848H169.152C169.12 44.416 167.488 42.688 165.088 42.88ZM163.68 48.704V53.824H184.672V58.432H157.504V48.704H163.68Z" fill="#19647E"/>
</svg>
