<svg width="196" height="92" viewBox="0 0 196 92" fill="none" xmlns="http://www.w3.org/2000/svg">
<path d="M32.0456 15.1873V17.9089H39.8216V23.9137H0.0776094V17.9089H7.89681V15.1873C3.57681 14.6257 1.15761 12.0769 1.15761 8.10252V7.84332C1.15761 3.26412 4.31121 0.628916 9.84081 0.628916H30.0152C35.5448 0.628916 38.7416 3.26412 38.7416 7.84332V8.10252C38.7416 12.0337 36.3224 14.5825 32.0456 15.1873ZM9.53841 7.97292V8.01612C9.53841 9.05292 10.1432 9.74412 11.5256 9.74412H28.3304C29.7128 9.74412 30.3608 9.05292 30.3608 8.01612V7.97292C30.3608 6.93612 29.7128 6.20172 28.3304 6.20172H11.5256C10.1432 6.20172 9.53841 6.93612 9.53841 7.97292ZM24.3128 15.3169H15.6296V17.9089H24.3128V15.3169ZM8.97681 26.2033H30.9224C36.3656 26.2033 38.9576 29.1841 38.9576 33.5473C38.9576 37.9105 36.3656 40.8913 30.9224 40.8913H8.97681C3.53361 40.8913 0.941609 37.9105 0.941609 33.5473C0.941609 29.1841 3.53361 26.2033 8.97681 26.2033ZM11.9576 35.5345H27.9416C29.6264 35.5345 30.62 35.0161 30.62 33.5473C30.62 32.0785 29.6264 31.5601 27.9416 31.5601H11.9576C10.2728 31.5601 9.27921 32.0785 9.27921 33.5473C9.27921 35.0161 10.2728 35.5345 11.9576 35.5345ZM67.34 17.0449V19.8529H83.0216V26.2897H43.2776V19.8529H58.9592V17.0449H44.9192V0.931318H80.8616V6.93612H53.0408V11.0401H81.1208V17.0449H67.34ZM45.092 28.1905H53.516V34.5841H81.6824V40.7617H45.092V28.1905ZM93.3896 41.2801H85.1816L102.289 0.369717H110.41L93.3896 41.2801ZM151.429 30.8257H143.221V12.6817H136.785V5.94252H143.221V0.456116H151.429V30.8257ZM126.589 15.8785C123.868 20.3713 119.245 23.4385 113.37 24.3025V17.2609C118.295 15.4897 121.06 11.4721 121.103 4.68972V1.23372H129.181V6.07212C129.181 7.32492 129.095 8.49132 128.879 9.65772C134.927 10.6945 138.945 15.6625 138.815 23.3521H130.909C131.039 19.9393 129.354 16.8289 126.589 15.8785ZM123.911 26.1169V34.3681H152.25V40.7617H115.573V26.1169H123.911ZM157.218 0.844916H194.025V14.3665H157.218V0.844916ZM165.383 8.96652H185.86V6.24492H165.383V8.96652ZM195.493 16.3969V21.5377H179.812V23.6545H194.068V34.3249H165.901V36.0961H194.759V40.7617H157.002V30.0481H185.169V28.2769H157.002V23.6545H171.431V21.5377H155.749V16.3969H195.493ZM39.3032 74.5681H31.2248C30.0584 71.1121 25.0904 68.3905 19.604 69.1681C15.6296 72.5377 9.14961 74.6113 0.812009 74.7841V68.3905C9.84081 67.9585 15.0248 64.7617 15.6728 60.7441H1.71921V54.4369H15.5432V50.6353H24.356L24.3992 54.4369H38.18V60.7441H24.0536C24.0104 61.6945 23.8376 62.6449 23.5352 63.5089C31.052 63.0769 38.396 66.7057 39.3032 74.5681ZM0.0776094 76.3393H39.8216V82.9921H24.14V91.9777H15.7592V82.9921H0.0776094V76.3393ZM68.1608 68.6497V62.3425H73.9496V51.4561H82.1576V81.8257H73.9496V68.6497H68.1608ZM56.54 70.7665C53.516 74.1361 48.8072 76.3393 43.7528 76.4257V70.2481C48.98 69.5569 52.4792 65.8417 52.4792 61.9537V61.7377H43.9688V55.3009H52.3064V51.4993H60.1688V55.3009H68.2472V61.7377H60.0392V61.9537C60.0392 62.9905 59.9096 63.9841 59.6504 64.9777C65.2664 65.4097 69.6728 69.2545 69.5432 76.1233H62.0264C61.9832 72.8401 59.78 70.5073 56.54 70.7665ZM54.6392 78.6289V85.5409H82.9784V91.7617H46.3016V78.6289H54.6392Z" fill="#37392E"/>
</svg>
