<svg width="36" height="35" viewBox="0 0 36 35" fill="none" xmlns="http://www.w3.org/2000/svg">
<path d="M17.9997 7.25115C17.9997 6.76974 17.9997 6.5271 18.1104 6.3291C18.2105 6.15852 18.3621 6.02399 18.5433 5.94474C18.7529 5.85933 18.9665 5.88651 19.3935 5.93698C21.3056 6.16775 23.1306 6.86909 24.7052 7.97822C26.2798 9.08734 27.5547 10.5696 28.4159 12.2923C29.277 14.0151 29.6976 15.9245 29.6398 17.8496C29.582 19.7747 29.0477 21.6554 28.0848 23.3234C27.1218 24.9914 25.7603 26.3945 24.122 27.4072C22.4837 28.4199 20.6199 29.0105 18.6974 29.1262C16.7749 29.2418 14.8537 28.8789 13.1059 28.07C11.358 27.261 9.83808 26.0312 8.6821 24.4907C8.42392 24.1452 8.29387 23.9724 8.26475 23.7492C8.24242 23.5521 8.2832 23.3529 8.38122 23.1804C8.49769 22.9863 8.70539 22.866 9.12275 22.6253L17.3009 17.9043C17.5552 17.7568 17.6833 17.683 17.7746 17.5802C17.8567 17.4893 17.9189 17.3821 17.957 17.2657C17.9997 17.1356 17.9997 16.9881 17.9997 16.693V7.25115Z" fill="#B5B5B5"/>
<path d="M18 34C27.1127 34 34.5 26.6127 34.5 17.5C34.5 8.3873 27.1127 1 18 1C8.8873 1 1.5 8.3873 1.5 17.5C1.5 26.6127 8.8873 34 18 34Z" stroke="#B5B5B5" stroke-width="1.5"/>
</svg>
